<?xml version="1.0" encoding="UTF-8" standalone="no"?>
<!-- Created with Inkscape (http://www.inkscape.org/) -->

<svg
   xmlns:dc="http://purl.org/dc/elements/1.1/"
   xmlns:cc="http://creativecommons.org/ns#"
   xmlns:rdf="http://www.w3.org/1999/02/22-rdf-syntax-ns#"
   xmlns:svg="http://www.w3.org/2000/svg"
   xmlns="http://www.w3.org/2000/svg"
   xmlns:xlink="http://www.w3.org/1999/xlink"
   xmlns:sodipodi="http://sodipodi.sourceforge.net/DTD/sodipodi-0.dtd"
   xmlns:inkscape="http://www.inkscape.org/namespaces/inkscape"
   width="666"
   height="225.33107"
   id="svg3029"
   version="1.1"
   inkscape:version="0.91 r13725"
   sodipodi:docname="hearltess-gaming-logo.svg">
  <defs
     id="defs3031">
    <linearGradient
       id="linearGradient3882">
      <stop
         style="stop-color:#b9b9b9;stop-opacity:1;"
         offset="0"
         id="stop3884" />
      <stop
         style="stop-color:#ffffff;stop-opacity:1;"
         offset="1"
         id="stop3886" />
    </linearGradient>
    <linearGradient
       inkscape:collect="always"
       xlink:href="#linearGradient9950"
       id="linearGradient9984"
       x1="500"
       y1="372.77158"
       x2="500"
       y2="555.20514"
       gradientUnits="userSpaceOnUse" />
    <linearGradient
       id="linearGradient9950">
      <stop
         id="stop9958"
         offset="0"
         style="stop-color:#ff4300;stop-opacity:1;" />
      <stop
         style="stop-color:#ad0000;stop-opacity:1;"
         offset="1"
         id="stop9954" />
    </linearGradient>
    <linearGradient
       gradientTransform="matrix(0.86973555,0,0,0.86973555,15.909529,79.565612)"
       y2="555.20514"
       x2="500"
       y1="372.77158"
       x1="500"
       gradientUnits="userSpaceOnUse"
       id="linearGradient3027"
       xlink:href="#linearGradient9950"
       inkscape:collect="always" />
    <linearGradient
       inkscape:collect="always"
       xlink:href="#linearGradient3882"
       id="linearGradient3888"
       x1="498.56201"
       y1="538.54523"
       x2="498.56201"
       y2="467.35513"
       gradientUnits="userSpaceOnUse" />
    <filter
       id="filter4610"
       inkscape:label="Drop Shadow"
       style="color-interpolation-filters:sRGB">
      <feFlood
         id="feFlood4612"
         flood-opacity="0.55"
         flood-color="rgb(0,0,0)"
         result="flood" />
      <feComposite
         id="feComposite4614"
         in2="SourceGraphic"
         in="flood"
         operator="in"
         result="composite1" />
      <feGaussianBlur
         id="feGaussianBlur4616"
         stdDeviation="5"
         result="blur" />
      <feOffset
         id="feOffset4618"
         dx="0"
         dy="3"
         result="offset" />
      <feComposite
         id="feComposite4620"
         in2="offset"
         in="SourceGraphic"
         operator="over"
         result="composite2" />
    </filter>
    <linearGradient
       inkscape:collect="always"
       xlink:href="#linearGradient3882"
       id="linearGradient4622"
       gradientUnits="userSpaceOnUse"
       x1="498.56201"
       y1="538.54523"
       x2="498.56201"
       y2="467.35513" />
    <linearGradient
       inkscape:collect="always"
       xlink:href="#linearGradient3882"
       id="linearGradient4624"
       gradientUnits="userSpaceOnUse"
       x1="498.56201"
       y1="538.54523"
       x2="498.56201"
       y2="467.35513" />
    <linearGradient
       inkscape:collect="always"
       xlink:href="#linearGradient3882"
       id="linearGradient4626"
       gradientUnits="userSpaceOnUse"
       x1="498.56201"
       y1="538.54523"
       x2="498.56201"
       y2="467.35513" />
    <linearGradient
       inkscape:collect="always"
       xlink:href="#linearGradient3882"
       id="linearGradient4628"
       gradientUnits="userSpaceOnUse"
       x1="498.56201"
       y1="538.54523"
       x2="498.56201"
       y2="467.35513" />
    <linearGradient
       inkscape:collect="always"
       xlink:href="#linearGradient3882"
       id="linearGradient4630"
       gradientUnits="userSpaceOnUse"
       x1="498.56201"
       y1="538.54523"
       x2="498.56201"
       y2="467.35513" />
    <linearGradient
       inkscape:collect="always"
       xlink:href="#linearGradient3882"
       id="linearGradient4632"
       gradientUnits="userSpaceOnUse"
       x1="498.56201"
       y1="538.54523"
       x2="498.56201"
       y2="467.35513" />
    <linearGradient
       inkscape:collect="always"
       xlink:href="#linearGradient3882"
       id="linearGradient4634"
       gradientUnits="userSpaceOnUse"
       x1="498.56201"
       y1="538.54523"
       x2="498.56201"
       y2="467.35513" />
    <linearGradient
       inkscape:collect="always"
       xlink:href="#linearGradient3882"
       id="linearGradient4636"
       gradientUnits="userSpaceOnUse"
       x1="498.56201"
       y1="538.54523"
       x2="498.56201"
       y2="467.35513" />
  </defs>
  <sodipodi:namedview
     id="base"
     pagecolor="#ffffff"
     bordercolor="#666666"
     borderopacity="1.0"
     inkscape:pageopacity="0.0"
     inkscape:pageshadow="2"
     inkscape:zoom="1"
     inkscape:cx="479.7372"
     inkscape:cy="110.84237"
     inkscape:document-units="px"
     inkscape:current-layer="layer1"
     showgrid="false"
     showguides="true"
     inkscape:guide-bbox="true"
     inkscape:window-width="1920"
     inkscape:window-height="1080"
     inkscape:window-x="1680"
     inkscape:window-y="0"
     inkscape:window-maximized="1"
     height="500px"
     fit-margin-top="0"
     fit-margin-left="0"
     fit-margin-right="0"
     fit-margin-bottom="0">
    <sodipodi:guide
       orientation="1,0"
       position="382.87499,-107.68871"
       id="guide3054" />
    <sodipodi:guide
       orientation="0,1"
       position="454.30356,63.739874"
       id="guide3056" />
  </sodipodi:namedview>
  <metadata
     id="metadata3034">
    <rdf:RDF>
      <cc:Work
         rdf:about="">
        <dc:format>image/svg+xml</dc:format>
        <dc:type
           rdf:resource="http://purl.org/dc/dcmitype/StillImage" />
        <dc:title></dc:title>
      </cc:Work>
    </rdf:RDF>
  </metadata>
  <g
     inkscape:label="Calque 1"
     inkscape:groupmode="layer"
     id="layer1"
     transform="translate(-117.12501,-390.77109)">
    <g
       id="g4466"
       style="filter:url(#filter4610)"
       transform="matrix(0.86973555,0,0,0.86973555,15.257226,80.256209)">
      <path
         id="path4464"
         style="font-style:normal;font-variant:normal;font-weight:normal;font-stretch:normal;font-size:250px;line-height:125%;font-family:'Grim Ghost';-inkscape-font-specification:'Grim Ghost';text-align:center;letter-spacing:0px;word-spacing:0px;writing-mode:lr-tb;text-anchor:middle;opacity:0.98999999;fill:#000000;fill-opacity:1;stroke:none"
         d="m 785.06251,378.61218 c -2.16679,1.7e-4 -3.87636,0.45711 -5.125,1.375 -1.24872,0.91825 -2.54243,2.04257 -3.875,3.375 -5.33552,4.83212 -10.12545,9.29089 -14.375,13.375 -4.24959,4.08442 -7.83304,8.37635 -10.75,12.875 -2.91698,4.49894 -5.12455,9.49934 -6.625,15 -1.50045,5.50092 -2.25,12.08512 -2.25,19.75 0,6.0019 0.3337,10.9176 1,14.75 0.6663,3.8326 1.83171,7.04127 3.5,9.625 1.66829,2.58391 3.95802,4.83256 6.875,6.75 2.91696,1.9176 6.62872,4.12772 11.125,6.625 1.16981,0.83422 2.75107,1.83277 4.75,3 1.99887,1.16737 3.99852,2.33531 6,3.5 2.00141,1.16482 3.70844,2.207 5.125,3.125 1.41648,0.91814 2.12496,1.45722 2.125,1.625 l 2.25,4.5 0,26.5 c -0.33065,3e-5 -1.08274,0.12581 -2.25,0.375 -1.16734,0.24926 -1.91944,0.29288 -2.25,0.125 -1.33264,-0.16273 -3.45807,-0.66582 -6.375,-1.5 -2.91701,-0.83411 -6.04098,-1.75051 -9.375,-2.75 -3.33407,-0.99941 -6.49912,-1.91582 -9.5,-2.75 -3.00091,-0.83411 -5.08526,-1.5015 -6.25,-2 -0.83416,0.99695 -1.45794,2.20852 -1.875,3.625 -0.41708,1.41656 -0.66608,2.91567 -0.75,4.5 -0.0839,1.58441 -0.0839,3.0835 0,4.5 0.0839,1.41655 0.125,2.45873 0.125,3.125 l 0,2.25 c 0,1.00201 0.0411,2.12635 0.125,3.375 0.0839,1.2487 0.125,2.37302 0.125,3.375 l 0,2.25 c 1.9989,3.00091 4.70702,5.37533 8.125,7.125 3.41795,1.74968 7.12463,3.12556 11.125,4.125 4.00032,0.99946 8.00217,1.66686 12,2 3.99777,0.33316 7.49906,0.5 10.5,0.5 6.66804,0 11.99959,-1.54273 16,-4.625 4.00027,-3.08227 7.08318,-6.99942 9.25,-11.75 2.16667,-4.75055 3.54254,-9.95888 4.125,-15.625 0.58229,-5.66606 0.87492,-11.16447 0.875,-16.5 -8e-5,-5.83389 -0.208,-11.75069 -0.625,-17.75 -0.41715,-5.99917 -1.70833,-11.74659 -3.875,-17.25 -0.99698,-0.33053 -2.66547,-1.00046 -5,-2 -2.33466,-0.99936 -4.83486,-2.12369 -7.5,-3.375 -2.66526,-1.25113 -5.16547,-2.41653 -7.5,-3.5 -2.33465,-1.08328 -3.9159,-1.87645 -4.75,-2.375 -3.1637,-1.6682 -6.167,-4.00155 -9,-7 -2.83309,-2.99825 -4.25003,-6.91286 -4.25,-11.75 -3e-5,-1.6631 0.12574,-3.99898 0.375,-7 0.24919,-3.00077 0.74974,-5.91683 1.5,-8.75 0.75018,-2.83292 1.91813,-5.33311 3.5,-7.5 1.58178,-2.16661 3.62251,-3.24986 6.125,-3.25 0.33056,1.4e-4 1.08265,0.0412 2.25,0.125 1.16724,0.0841 1.83211,0.21238 2,0.375 l 24.75,13.5 c 1.33252,-4.50121 2.08208,-8.29259 2.25,-11.375 0.16777,-3.08213 0.24992,-6.79136 0.25,-11.125 -8e-5,-0.834 -0.0411,-2.3331 -0.125,-4.5 -0.084,-2.16659 -0.12508,-3.6657 -0.125,-4.5 -1.00207,-1.50029 -2.87595,-3.41779 -5.625,-5.75 -2.74919,-2.33189 -5.79103,-4.58308 -9.125,-6.75 -3.33411,-2.16657 -6.70963,-4.04045 -10.125,-5.625 -3.41548,-1.58419 -6.37261,-2.37483 -8.875,-2.375 z m -75.03125,1.59375 c -1.73343,1.4e-4 -3.09484,0.35944 -4.09375,1.09375 -0.99897,0.7346 -2.0277,1.65281 -3.09375,2.71875 -4.26842,3.86569 -8.10036,7.42022 -11.5,10.6875 -3.39967,3.26754 -6.26019,6.71358 -8.59375,10.3125 -2.33359,3.59916 -4.11214,7.59948 -5.3125,12 -1.20036,4.40074 -1.8125,9.64935 -1.8125,15.78125 0,4.80152 0.27946,8.74658 0.8125,11.8125 0.53303,3.06608 1.47786,5.62051 2.8125,7.6875 1.33463,2.06712 3.16641,3.8723 5.5,5.40625 2.33356,1.53408 5.27798,3.31468 8.875,5.3125 0.93586,0.66738 2.21336,1.47247 3.8125,2.40625 1.5991,0.9339 3.21132,1.8495 4.8125,2.78125 1.60113,0.93185 2.9605,1.76559 4.09375,2.5 1.13319,0.7345 1.68747,1.17827 1.6875,1.3125 l 1.8125,3.59375 0,21.1875 c -0.26452,3e-5 -0.8787,0.11313 -1.8125,0.3125 -0.93387,0.19941 -1.51679,0.22801 -1.78125,0.0937 -1.06611,-0.13018 -2.76021,-0.52016 -5.09375,-1.1875 -2.33361,-0.66729 -4.83279,-1.41916 -7.5,-2.21875 -2.66726,-0.79953 -5.2243,-1.52015 -7.625,-2.1875 -2.40073,-0.66728 -4.06821,-1.19495 -5,-1.59375 -0.66733,0.79756 -1.16634,1.74181 -1.5,2.875 -0.33366,1.13325 -0.52662,2.35753 -0.59375,3.625 -0.0671,1.26752 -0.0671,2.46055 0,3.59375 0.0671,1.13324 0.0937,1.96698 0.0937,2.5 l 0,1.78125 c 0,0.80161 0.0266,1.71983 0.0937,2.71875 0.0671,0.99896 0.125,1.88592 0.125,2.6875 l 0,1.8125 c 1.59912,2.40072 3.76561,4.28777 6.5,5.6875 2.73436,1.39974 5.70596,2.51294 8.90625,3.3125 3.20026,0.79956 6.39548,1.32723 9.59375,1.59375 3.19821,0.26652 5.97425,0.40625 8.375,0.40625 5.33443,0 9.61218,-1.22168 12.8125,-3.6875 3.20022,-2.46581 5.67279,-5.60579 7.40625,-9.40625 1.73333,-3.80044 2.84653,-7.96711 3.3125,-12.5 0.46583,-4.53285 0.68744,-8.95032 0.6875,-13.21875 -6e-5,-4.66711 -0.1664,-9.38805 -0.5,-14.1875 -0.33372,-4.79934 -1.36041,-9.40977 -3.09375,-13.8125 -0.79758,-0.26442 -2.13238,-0.79412 -4,-1.59375 -1.86773,-0.79949 -3.86789,-1.68646 -6,-2.6875 -2.13221,-1.00091 -4.13237,-1.94572 -6,-2.8125 -1.86772,-0.86662 -3.14522,-1.50741 -3.8125,-1.90625 -2.53096,-1.33456 -4.92109,-3.19499 -7.1875,-5.59375 -2.26646,-2.39859 -3.40628,-5.53654 -3.40625,-9.40625 -3e-5,-1.33048 0.11313,-3.19294 0.3125,-5.59375 0.19935,-2.40061 0.58729,-4.73346 1.1875,-7 0.60015,-2.26633 1.51576,-4.2665 2.78125,-6 1.26543,-1.73329 2.90426,-2.59364 4.90625,-2.59375 0.26445,1.1e-4 0.87862,0.0267 1.8125,0.0937 0.9338,0.0673 1.45943,0.1824 1.59375,0.3125 l 19.8126,10.78135 c 1.06602,-3.60097 1.64691,-6.62782 1.78125,-9.09375 0.13422,-2.46571 0.21869,-5.43934 0.21875,-8.90625 -6e-5,-0.6672 -0.0266,-1.86023 -0.0937,-3.59375 -0.0672,-1.73328 -0.12506,-2.9263 -0.125,-3.59375 -0.80165,-1.20023 -2.30076,-2.72798 -4.5,-4.59375 -2.19936,-1.8655 -4.61407,-3.67272 -7.28125,-5.40625 -2.66729,-1.73327 -5.36145,-3.23236 -8.09375,-4.5 -2.73238,-1.26735 -5.12308,-1.90611 -7.125,-1.90625 z m -378.625,0.21875 c -7.73117,0.53319 -15.62073,1.00299 -23.6875,1.46875 -8.06684,0.46604 -15.79266,0.57713 -23.125,0.3125 l -3.59375,1.8125 c -10e-6,2.26657 0.0267,5.65476 0.0937,10.1875 0.0671,4.533 0.125,9.81083 0.125,15.8125 l 0,18.1875 0,18.1875 c 0,5.86758 -0.0579,11.09219 -0.125,15.625 -0.0671,4.53294 -0.0938,7.92111 -0.0937,10.1875 -10e-6,1.20041 -0.0533,3.33826 -0.1875,6.40625 -0.13428,3.06807 -0.30062,6.34574 -0.5,9.8125 -0.19938,3.46683 -0.39437,6.71527 -0.59375,9.78125 -0.19939,3.06602 -0.36573,5.20591 -0.5,6.40625 -0.26856,0.26451 -0.65911,0.82082 -1.125,1.6875 -0.46591,0.86671 -0.6875,1.50343 -0.6875,1.90625 0,0.66733 -0.0266,1.66742 -0.0937,3 -0.0671,1.33262 -0.18026,2.77849 -0.3125,4.3125 -0.13224,1.53402 -0.21411,2.94865 -0.28125,4.28125 -0.0671,1.3326 -0.125,2.27946 -0.125,2.8125 l 49.40625,0 c -5e-5,0 0.11303,-0.63876 0.3125,-1.90625 0.19933,-1.2675 0.39432,-2.76659 0.59375,-4.5 0.19933,-1.73339 0.36567,-3.51399 0.5,-5.3125 0.13423,-1.79849 0.27599,-3.26838 0.40625,-4.46875 -5e-5,-0.26854 0.0265,-0.99176 0.0937,-2.125 0.0671,-1.1332 0.0937,-2.02016 0.0937,-2.6875 -6e-5,-0.39874 0.0265,-0.8998 0.0937,-1.5 0.0671,-0.60016 0.0405,-1.2389 -0.0937,-1.90625 -0.13433,-0.66729 -0.32728,-1.22158 -0.59375,-1.6875 -0.26657,-0.46588 -0.74305,-0.77195 -1.40625,-0.90625 -0.66737,2e-5 -1.72067,0.0266 -3.1875,0.0937 -1.46692,0.0672 -3.13237,0.0938 -5,0.0937 -1.73344,3e-5 -3.34566,-0.0265 -4.8125,-0.0937 -1.46692,-0.0671 -2.52021,-0.0937 -3.1875,-0.0937 -0.79756,-0.13018 -1.9128,-0.41168 -3.3125,-0.8125 -1.39977,-0.40077 -2.09378,-0.73142 -2.09375,-1 l 0,-36 c -3e-5,7e-5 0.64076,-0.0818 1.90625,-0.28125 1.26543,-0.19931 2.76657,-0.3943 4.5,-0.59375 1.73336,-0.19932 3.48068,-0.36566 5.28125,-0.5 1.8005,-0.13421 3.29959,-0.27191 4.5,-0.40625 0.66727,6e-5 1.89156,-0.0865 3.625,-0.21875 1.73335,-0.13217 2.93045,-0.18743 3.59375,-0.1875 l 0,-22.40625 c -0.6633,9e-5 -1.66542,-0.0265 -3,-0.0937 -1.33469,-0.067 -2.78057,-0.15152 -4.3125,-0.21875 -1.53203,-0.067 -2.94665,-0.12027 -4.28125,-0.1875 -1.33467,-0.067 -2.2795,-0.0937 -2.8125,-0.0937 -0.26453,9e-5 -0.82084,-0.0864 -1.6875,-0.21875 -0.86673,-0.13215 -1.81156,-0.32714 -2.8125,-0.59375 -1.00101,-0.26643 -1.97245,-0.62573 -2.90625,-1.09375 -0.93387,-0.46785 -1.46357,-1.02416 -1.59375,-1.6875 l 0,-1.625 c -3e-5,-0.66315 -0.0266,-1.44106 -0.0937,-2.375 -0.0672,-0.93374 -0.0938,-1.73883 -0.0937,-2.40625 l 0,-1.59375 c -3e-5,-0.26845 -0.0579,-1.21328 -0.125,-2.8125 -0.0672,-1.59902 0.0194,-3.31972 0.21875,-5.1875 0.19935,-1.86756 0.55865,-3.5929 1.09375,-5.125 0.53505,-1.53186 1.39743,-2.28113 2.59375,-2.28125 l 23.40625,0 0,-25.1875 z m 341,0 c -7.73117,0.53319 -15.62073,1.00299 -23.6875,1.46875 -8.06684,0.46604 -15.76141,0.57713 -23.09375,0.3125 l -3.59375,1.8125 c 0,2.26657 0.0266,5.65476 0.0937,10.1875 0.0671,4.533 0.0937,9.81083 0.0937,15.8125 l 0,18.1875 0,18.1875 c -10e-6,5.86758 -0.0266,11.09219 -0.0937,15.625 -0.0671,4.53294 -0.0937,7.92111 -0.0937,10.1875 0,1.20041 -0.0844,3.33826 -0.21875,6.40625 -0.13429,3.06807 -0.30063,6.34574 -0.5,9.8125 -0.19939,3.46683 -0.39437,6.71527 -0.59375,9.78125 -0.19938,3.06602 -0.36572,5.20591 -0.5,6.40625 -0.26855,0.26451 -0.62785,0.82082 -1.09375,1.6875 -0.4659,0.86671 -0.71875,1.50343 -0.71875,1.90625 0,0.66733 -0.0266,1.66742 -0.0937,3 -0.0671,1.33262 -0.14901,2.77849 -0.28125,4.3125 -0.13225,1.53402 -0.24537,2.94865 -0.3125,4.28125 -0.0671,1.3326 -0.0937,2.27946 -0.0937,2.8125 l 49.40625,0 c -5e-5,0 0.0818,-0.63876 0.28125,-1.90625 0.19934,-1.2675 0.39432,-2.76659 0.59375,-4.5 0.19933,-1.73339 0.36567,-3.51399 0.5,-5.3125 0.13422,-1.79849 0.27599,-3.26838 0.40625,-4.46875 -6e-5,-0.26854 0.0266,-0.99176 0.0937,-2.125 0.0671,-1.1332 0.12495,-2.02016 0.125,-2.6875 -5e-5,-0.39874 0.0265,-0.8998 0.0937,-1.5 0.0671,-0.60016 0.0405,-1.2389 -0.0937,-1.90625 -0.13433,-0.66729 -0.35854,-1.22158 -0.625,-1.6875 -0.26658,-0.46588 -0.7118,-0.77195 -1.375,-0.90625 -0.66736,2e-5 -1.75192,0.0266 -3.21875,0.0937 -1.46693,0.0672 -3.13237,0.0938 -5,0.0937 -1.73344,3e-5 -3.31441,-0.0265 -4.78125,-0.0937 -1.46691,-0.0671 -2.55147,-0.0937 -3.21875,-0.0937 -0.79756,-0.13018 -1.88154,-0.41168 -3.28125,-0.8125 -1.39977,-0.40077 -2.12503,-0.73142 -2.125,-1 l 0,-36 c -3e-5,7e-5 0.64076,-0.0818 1.90625,-0.28125 1.26543,-0.19931 2.76656,-0.3943 4.5,-0.59375 1.73336,-0.19932 3.51192,-0.36566 5.3125,-0.5 1.80049,-0.13421 3.2996,-0.27191 4.5,-0.40625 0.66727,6e-5 1.8603,-0.0865 3.59375,-0.21875 1.73334,-0.13217 2.93045,-0.18743 3.59375,-0.1875 l 0,-22.40625 c -0.6633,9e-5 -1.66542,-0.0265 -3,-0.0937 -1.33468,-0.067 -2.74931,-0.15152 -4.28125,-0.21875 -1.53202,-0.067 -2.97791,-0.12027 -4.3125,-0.1875 -1.33468,-0.067 -2.2795,-0.0937 -2.8125,-0.0937 -0.26452,9e-5 -0.82084,-0.0864 -1.6875,-0.21875 -0.86674,-0.13215 -1.81156,-0.32714 -2.8125,-0.59375 -1.00101,-0.26643 -1.94119,-0.62573 -2.875,-1.09375 -0.93387,-0.46785 -1.49482,-1.02416 -1.625,-1.6875 l 0,-1.625 c -3e-5,-0.66315 -0.0266,-1.44106 -0.0937,-2.375 -0.0672,-0.93374 -0.0938,-1.73883 -0.0937,-2.40625 l 0,-1.59375 c -2e-5,-0.26845 -0.0267,-1.21328 -0.0937,-2.8125 -0.0672,-1.59902 -0.0119,-3.31972 0.1875,-5.1875 0.19935,-1.86756 0.55864,-3.5929 1.09375,-5.125 0.53504,-1.53186 1.42868,-2.28113 2.625,-2.28125 l 23.375,0 0,-25.1875 z m -491.46875,0.1875 c 0,14.66894 0.29008,29.29283 0.875,43.875 0.58492,14.58243 1.25232,29.16524 2,43.75 0.74768,14.58493 1.45615,29.20882 2.125,43.875 0.66883,14.66627 0.99999,29.33632 1,44 l 21.25,0 4.5,-4.5 2.75,-68 c 0.49842,-0.16777 1.54059,-0.33208 3.125,-0.5 1.58433,-0.16777 3.37605,-0.33462 5.375,-0.5 1.99885,-0.16523 4.03958,-0.3757 6.125,-0.625 2.08532,-0.24915 3.79235,-0.45708 5.125,-0.625 0.83409,8e-5 1.99949,8e-5 3.5,0 1.66314,8e-5 3.0801,-0.0821 4.25,-0.25 l 0,77.25 31.25,0 c -10e-5,-13.16324 -0.74965,-25.95686 -2.25,-38.375 -1.50054,-12.41806 -2.5278,-25.12445 -3.03125,-38.125 l 0,-36 c -9e-5,-1.16973 -0.0535,-3.37477 -0.21875,-6.625 -0.16539,-3.25001 -0.37587,-6.6666 -0.625,-10.25 -0.24932,-3.58314 -0.49832,-6.95867 -0.75,-10.125 -0.25186,-3.16606 -0.46232,-5.41726 -0.625,-6.75 0.99682,-1.66815 1.74891,-3.83465 2.25,-6.5 0.50091,-2.66504 0.83461,-5.37318 1,-8.125 0.16519,-2.75151 0.2063,-5.2517 0.125,-7.5 -0.0815,-2.24796 -0.12509,-3.87284 -0.125,-4.875 l -25.78125,0 c -0.33067,1.7e-4 -0.59459,1.29135 -0.84375,3.875 -0.24929,2.58399 -0.49829,6.04167 -0.75,10.375 -0.25183,4.33365 -0.4187,9.24936 -0.5,14.75 -0.0815,5.50093 -0.12506,11.08403 -0.125,16.75 l 0,22 c -2.8382,1.1e-4 -6.83496,-0.0846 -12,-0.25 -5.16515,-0.1652 -9.9987,-0.4142 -14.5,-0.75 0.16781,-2.33448 0.291,-4.54206 0.375,-6.625 0.0839,-2.08271 0.12496,-3.37644 0.125,-3.875 l 0,-60.75 -35,0 z m 318.21875,1.59375 c -0.13021,1.4e-4 -0.29859,0.41933 -0.5,1.21875 -0.20142,0.7997 -0.39438,1.76853 -0.59375,2.96875 -0.19939,1.20049 -0.36776,2.42478 -0.5,3.625 -0.13226,1.20049 -0.21876,2.2026 -0.21875,3 -10e-6,0.53317 -0.0267,1.39352 -0.0937,2.59375 -0.0671,1.20048 -0.1204,2.42013 -0.1875,3.6875 -0.0671,1.26762 -0.15165,2.51851 -0.21875,3.71875 -0.0671,1.20048 -0.0938,2.06083 -0.0937,2.59375 l 20.40625,0 0,68.40625 c -0.66734,2.26648 -1.16637,4.54147 -1.5,6.875 -0.33368,2.33362 -0.50002,4.86202 -0.5,7.53125 l 0,14.375 0,3.625 c -2e-5,1.73341 0.0267,3.50937 0.0937,5.375 0.0671,1.86565 0.0937,3.67286 0.0937,5.40625 l 0,3.59375 c 0.39874,0.13428 1.20587,0.30062 2.40625,0.5 1.20034,0.19938 2.47988,0.39437 3.8125,0.59375 1.33258,0.19938 2.58086,0.36573 3.78125,0.5 1.20033,0.13432 2.09193,0.21875 2.625,0.21875 0.39873,0 1.09274,-0.0845 2.09375,-0.21875 1.00094,-0.13427 2.08085,-0.30062 3.28125,-0.5 1.20032,-0.19938 2.31352,-0.39437 3.3125,-0.59375 0.9989,-0.19938 1.69494,-0.36572 2.09375,-0.5 0.13423,-0.53303 0.29854,-1.55973 0.5,-3.09375 0.20137,-1.53401 0.39433,-3.17284 0.59375,-4.90625 0.19934,-1.73338 0.36771,-3.37425 0.5,-4.90625 0.13217,-1.53196 0.2187,-2.61391 0.21875,-3.28125 -5e-5,-2.26642 0.0266,-6.1004 0.0937,-11.5 0.0671,-5.39954 0.0937,-11.17639 0.0937,-17.3125 -4e-5,-6.13194 -0.0267,-11.88162 -0.0937,-17.28125 -0.0672,-5.39951 -0.0938,-9.23349 -0.0937,-11.5 l 1.78125,-3.59375 c 0,-0.80151 -0.0287,-2.24536 -0.0937,-4.3125 -0.0652,-2.06697 -0.0938,-4.23347 -0.0937,-6.5 0,-2.26635 0.0285,-4.43489 0.0937,-6.5 0.065,-2.06493 0.0937,-3.51081 0.0937,-4.3125 -5e-5,-1.20026 0.0844,-2.75461 0.21875,-4.6875 0.13423,-1.93267 0.30057,-3.79311 0.5,-5.59375 0.19933,-1.80043 0.39432,-3.38603 0.59375,-4.71875 0.19933,-1.33248 0.36567,-1.99988 0.5,-2 l 12.59375,0 0,-22.59375 -57.59375,0 z m 69.03125,0 -3.59375,1.8125 c -10e-6,2.26657 0.0267,5.65476 0.0937,10.1875 0.0671,4.533 0.125,9.81083 0.125,15.8125 l 0,18.1875 0,18.1875 c 0,5.86758 -0.0579,11.09219 -0.125,15.625 -0.0671,4.53294 -0.0938,7.92111 -0.0937,10.1875 -10e-6,1.20041 -0.0532,3.33826 -0.1875,6.40625 -0.13428,3.06807 -0.30062,6.34574 -0.5,9.8125 -0.19938,3.46683 -0.39437,6.71527 -0.59375,9.78125 -0.19939,3.06602 -0.36573,5.20591 -0.5,6.40625 -0.26856,0.26451 -0.65911,0.82082 -1.125,1.6875 -0.46591,0.86671 -0.6875,1.50343 -0.6875,1.90625 0,0.66733 -0.0266,1.66742 -0.0937,3 -0.0671,1.33262 -0.18026,2.77849 -0.3125,4.3125 -0.13224,1.53402 -0.21411,2.94865 -0.28125,4.28125 -0.0671,1.3326 -0.125,2.27946 -0.125,2.8125 l 52.40625,-0.8125 c -5e-5,0 0.11302,-0.58089 0.3125,-1.78125 0.19932,-1.20035 0.39228,-2.67285 0.59375,-4.40625 0.20136,-1.73339 0.3677,-3.5406 0.5,-5.40625 0.13219,-1.86563 0.27192,-3.39338 0.40625,-4.59375 -5e-5,-0.26854 0.0265,-0.96051 0.0937,-2.09375 0.0671,-1.1332 0.0937,-2.05141 0.0937,-2.71875 -6e-5,-0.39874 0.0266,-0.8998 0.0937,-1.5 0.0671,-0.60016 0.0671,-1.2389 0,-1.90625 -0.0672,-0.66729 -0.26015,-1.22158 -0.59375,-1.6875 -0.33371,-0.46588 -0.83273,-0.77195 -1.5,-0.90625 -0.66737,2e-5 -2.22173,0.16637 -4.6875,0.5 -2.46587,0.33369 -4.63237,0.50003 -6.5,0.5 -1.73344,3e-5 -3.34566,-0.0265 -4.8125,-0.0937 -1.46692,-0.0671 -2.52021,-0.0937 -3.1875,-0.0937 -0.79756,-0.13018 -1.9128,-0.41168 -3.3125,-0.8125 -1.39977,-0.40077 -2.09378,-0.73142 -2.09375,-1 l 0,-64.78125 0,-1.625 c -3e-5,-0.66315 -0.0266,-1.44106 -0.0937,-2.375 -0.0672,-0.93374 -0.0938,-1.73883 -0.0937,-2.40625 l 0,-1.59375 c -3e-5,-0.13418 0.19496,-1.16086 0.59375,-3.09375 0.39874,-1.93267 0.81329,-4.35203 1.28125,-7.21875 0.46791,-2.86651 0.94032,-5.89335 1.40625,-9.09375 0.46587,-3.20015 0.80059,-6.20039 1,-9 0.19935,-2.79935 0.19935,-5.13219 0,-7 -0.19941,-1.86754 -0.7025,-2.81236 -1.5,-2.8125 l -22.40625,-0.59385 z m -169.15625,0.8125 -28,0.375 c -0.13432,1.4e-4 -0.41378,0.72336 -0.8125,2.125 -0.3988,1.40191 -0.73148,2.48386 -1,3.28125 -0.13431,0.40297 -0.30065,1.04171 -0.5,1.90625 -0.19941,0.86479 -0.3944,1.75379 -0.59375,2.6875 -0.19942,0.93397 -0.36576,1.85217 -0.5,2.71875 -0.13432,0.86682 -0.18753,1.41907 -0.1875,1.6875 l -7.21875,13.59375 c -0.39879,1.86778 -0.7069,3.7016 -0.90625,5.5 -0.19941,1.7986 -0.39439,3.43947 -0.59375,4.90625 -0.1994,1.46698 -0.33915,2.66001 -0.40625,3.59375 -0.0672,0.93394 -0.0938,1.49081 -0.0937,1.625 -1.59915,6.93368 -3.01378,13.014 -4.28125,18.28125 -1.26752,5.2674 -2.51841,10.07486 -3.71875,14.40625 -1.20038,4.33152 -2.3934,8.47157 -3.59375,12.40625 -1.20037,3.93478 -2.3934,8.10144 -3.59375,12.5 -1.20037,4.39864 -2.50652,9.25931 -3.90625,14.59375 -1.39974,5.33449 -2.95411,11.61443 -4.6875,18.8125 l 30.375,4.59375 1.81245,-15.40625 c -3e-5,-0.53302 0.1397,-1.39337 0.40625,-2.59375 0.26649,-1.20034 0.6012,-2.72605 1,-4.59375 1.86764,-0.26446 4.06075,-0.54595 6.59375,-0.8125 2.53292,-0.26649 4.6728,-0.54392 6.40625,-0.8125 0.53299,2e-5 1.92101,2e-5 4.1875,0 2.27045,2e-5 4.35508,-0.0532 6.21875,-0.1875 0.26849,2.79951 0.51467,5.60476 0.78125,8.40625 0.26646,2.80153 0.60117,5.32732 1,7.59375 0.3987,2.26645 0.87112,4.10027 1.40625,5.5 0.53501,1.39974 1.20241,2.09375 2,2.09375 l 5.8125,0 c 2.93369,0 5.76555,-0.16634 8.5,-0.5 2.73429,-0.33366 6.23559,-1.02766 10.5,-2.09375 -9e-5,-2.93375 -0.25293,-6.07372 -0.71875,-9.40625 -0.46598,-3.33251 -1.02027,-6.72068 -1.6875,-10.1875 -0.66741,-3.46677 -1.3348,-6.88417 -2,-10.21875 -0.66536,-3.33452 -1.27954,-6.38798 -1.8125,-9.1875 -2.00203,-10.7991 -3.97355,-21.41204 -5.90625,-31.8125 -1.93285,-10.40031 -3.76667,-21.06648 -5.5,-32 -1.06615,-5.8674 -2.06623,-11.28235 -3,-16.28125 -0.9339,-4.99865 -1.51277,-10.69306 -1.78125,-17.09375 z m 32.21875,2.78125 -1.8125,1.8125 c -0.13429,0.13034 -0.30062,1.63352 -0.5,4.5 -0.19939,2.86675 -0.39234,6.58761 -0.59375,11.1875 -0.20142,4.60013 -0.45224,9.76687 -0.71875,15.5 -0.26653,5.73333 -0.48813,11.51221 -0.6875,17.3125 -0.19939,5.80045 -0.39437,11.38175 -0.59375,16.78125 -0.19938,5.39964 -0.36572,10.03668 -0.5,13.90625 0,1.73345 -0.0267,4.65183 -0.0937,8.71875 -0.0671,4.06702 -0.18026,8.48189 -0.3125,13.28125 -0.13224,4.79943 -0.21415,9.69135 -0.28125,14.625 -0.0671,4.93369 -0.125,9.18426 -0.125,12.78125 l 0,6.40625 24.21875,0 0,-63 9,0 c 0.26852,1.20042 0.62781,3.06085 1.09375,5.59375 0.46586,2.53301 0.99353,5.39353 1.59375,8.59375 0.60014,3.20032 1.21228,6.59111 1.8125,10.125 0.60014,3.53397 1.18103,6.8935 1.78125,10.09375 0.60014,3.2003 1.12781,6.06081 1.59375,8.59375 0.46586,2.53298 0.8564,4.3934 1.125,5.59375 0.26444,1.46485 0.68102,3.35393 1.28125,5.6875 0.60013,2.33358 1.09916,4.30713 1.5,5.90625 0.40075,1.59912 0.67818,2.54395 0.8125,2.8125 l 22.1875,0 c -7e-5,-5.20019 -0.69408,-10.34032 -2.09375,-15.40625 -1.3998,-5.0659 -2.89891,-10.09291 -4.5,-15.09375 -1.60122,-5.00078 -3.10031,-9.97254 -4.5,-14.90625 -1.39979,-4.93363 -2.09381,-9.93403 -2.09375,-15 -6e-5,-0.3987 0.55423,-1.03949 1.6875,-1.90625 1.13317,-0.86664 2.38405,-1.89333 3.71875,-3.09375 1.33457,-1.20029 2.55422,-2.61492 3.6875,-4.28125 1.13315,-1.66618 1.71868,-3.52922 1.71875,-5.53125 -7e-5,-8.79711 -0.41926,-17.35407 -1.21875,-25.6875 -0.79963,-8.33322 -1.60471,-16.69112 -2.40625,-25.09375 -0.13434,-0.7974 -0.24282,-1.79952 -0.375,-3 -0.1323,-1.20023 -0.29865,-2.36665 -0.5,-3.5 -0.20148,-1.13308 -0.42568,-2.13316 -0.625,-3 -0.19947,-0.86656 -0.28131,-1.31236 -0.28125,-1.3125 l -54,0 z m 19.78125,19.8125 12.59375,0 c 1.20032,1.2e-4 2.09192,0.88912 2.625,2.6875 0.533,1.79862 0.89432,3.82538 1.09375,6.09375 0.19941,2.26858 0.2526,4.40644 0.1875,6.40625 -0.0651,2.00002 -0.0938,3.22633 -0.0937,3.625 -5e-5,0.80169 -0.0267,2.02134 -0.0937,3.6875 -0.0672,1.66635 -0.0938,2.55739 -0.0937,2.6875 l -3.625,3.59375 -12.59375,0 0,-28.78125 z m -70.40625,34.78125 c 0.93175,8e-5 1.93386,0.72534 3,2.125 1.06602,1.39982 1.78462,2.61742 2.1875,3.6875 0.13423,0.66332 0.35843,2.11124 0.625,4.3125 0.26647,2.2014 0.54332,4.7272 0.875,7.59375 0.33157,2.86668 0.66629,5.86692 1,9 0.33361,3.13319 0.63764,5.96506 0.90625,8.5 -1.46896,5e-5 -3.18764,-0.0532 -5.1875,-0.1875 -1.99997,-0.13423 -3.97352,-0.2453 -5.90625,-0.3125 -1.93283,-0.0671 -3.6003,-0.18021 -5,-0.3125 -1.39978,-0.13217 -2.28877,-0.18745 -2.6875,-0.1875 l -0.625,0 c 0.80155,-4.13406 1.74638,-8.24547 2.8125,-12.3125 1.06604,-4.06691 2.12138,-7.73252 3.1875,-11 1.06604,-3.26734 2.03951,-5.90625 2.90625,-7.90625 0.86665,-1.99984 1.50337,-2.99992 1.90625,-3 z"
         inkscape:connector-curvature="0" />
      <g
         transform="matrix(0.98333264,0,0,0.98333264,9.7476884,66.195928)"
         style="font-style:normal;font-variant:normal;font-weight:normal;font-stretch:normal;font-size:78px;line-height:125%;font-family:Xoireqe;-inkscape-font-specification:Xoireqe;text-align:start;letter-spacing:0px;word-spacing:0px;writing-mode:lr-tb;text-anchor:start;fill:#000000;fill-opacity:1;stroke:none"
         id="g4462">
        <g
           id="g4460"
           style="fill:#000000;fill-opacity:1">
          <g
             id="g4458"
             style="fill:#000000;fill-opacity:1">
            <path
               d="m 364.78711,472.39456 0,14.58453 -67.7049,0 0,28.31451 52.65143,0 0,-6.55078 -25.89605,0 0,-15.05347 40.71386,0 0,18.56214 c -8e-5,2.34071 -0.36388,4.38188 -1.0914,6.1235 -0.72768,1.74165 -1.94921,3.60032 -3.66458,5.57602 -2.13289,2.49622 -4.68147,4.21247 -7.64575,5.14875 -2.44392,0.78076 -5.64155,1.17114 -9.5929,1.17114 l -38.76672,0 c -3.4833,0 -6.34291,-0.3642 -8.57886,-1.09259 -2.65174,-0.88391 -5.04401,-2.41766 -7.17682,-4.60126 -1.87256,-1.92492 -3.26349,-3.88833 -4.17279,-5.89023 -0.9093,-2.00188 -1.36395,-4.3025 -1.36395,-6.90188 l 0,-23.24433 c 0,-1.76778 0.58478,-3.7177 1.75433,-5.84976 1.16955,-2.13197 2.74218,-4.0561 4.7179,-5.7724 1.9757,-1.71619 4.22475,-2.89924 6.74716,-3.54913 2.52238,-0.64979 5.13563,-0.97471 7.83975,-0.97476 z"
               style="fill:#000000;fill-opacity:1"
               id="path4456"
               inkscape:connector-curvature="0" />
            <path
               d="m 451.72064,486.82436 c 0,-3.74348 1.16995,-6.96729 3.50986,-9.67144 2.33989,-2.70405 5.35542,-4.23859 9.0466,-4.60364 4.1085,6e-5 7.64493,1.17041 10.60931,3.51105 2.65171,2.08049 4.75754,5.04405 6.31751,8.89068 l 13.02539,32.37067 14.27508,-34.08453 c 1.40436,-3.38008 3.22455,-5.98024 5.46058,-7.80048 2.44377,-1.97565 5.35576,-2.9635 8.73596,-2.96356 4.31474,6e-5 7.82419,1.63775 10.52838,4.91308 2.54849,3.06756 3.82279,6.81188 3.82288,11.23297 l 0,41.88501 -13.96326,0 0,-42.66577 -13.80615,30.41876 c -2.44391,5.35743 -4.61481,8.88078 -6.5127,10.57004 -1.898,1.68927 -4.14666,2.69022 -6.74597,3.00284 -4.00383,0 -7.4879,-1.37823 -10.45221,-4.1347 -2.28837,-2.13122 -4.3942,-5.30267 -6.31751,-9.51435 l -13.57287,-29.79748 0,42.51105 -13.96088,-0.39039 z"
               style="fill:#000000;fill-opacity:1"
               id="path4454"
               inkscape:connector-curvature="0" />
            <path
               d="m 544.63605,530.97311 0,-58.57855 16.14605,0 0,58.57855 z"
               style="fill:#000000;fill-opacity:1"
               id="path4452"
               inkscape:connector-curvature="0" />
            <path
               d="m 582.45062,471.22341 c 2.08043,6e-5 4.13468,0.49438 6.16278,1.48297 2.02805,0.98871 3.97837,2.39233 5.85096,4.21088 l 39.23327,39 0,-43.28943 14.66309,0 0,42.4325 c -9e-5,3.4325 -0.59796,6.33179 -1.79361,8.69787 -1.19582,2.3661 -3.17193,4.32911 -5.92832,5.88904 -0.98713,0.51892 -2.07893,0.9343 -3.27539,1.24612 -1.1966,0.31183 -2.31458,0.46775 -3.35394,0.46775 -2.18366,0 -4.2764,-0.48084 -6.27823,-1.44251 -2.00195,-0.96167 -3.96536,-2.37878 -5.89023,-4.25134 l -39.23327,-38.68817 0,43.75836 -14.58692,-0.23328 0,-45.3175 c 0,-2.91194 0.728,-5.40815 2.18399,-7.48865 1.45599,-2.08039 3.5884,-3.77045 6.39725,-5.07019 1.97569,-0.93622 3.92522,-1.40436 5.84857,-1.40442 z"
               style="fill:#000000;fill-opacity:1"
               id="path4450"
               inkscape:connector-curvature="0" />
            <path
               d="m 736.35352,472.39456 0,14.58453 -67.7049,0 0,28.31451 52.65143,0 0,-6.55078 -25.89606,0 0,-15.05347 40.71387,0 0,18.56214 c -9e-5,2.34071 -0.36389,4.38188 -1.0914,6.1235 -0.72768,1.74165 -1.94921,3.60032 -3.66458,5.57602 -2.13289,2.49622 -4.68147,4.21247 -7.64575,5.14875 -2.44392,0.78076 -5.64155,1.17114 -9.5929,1.17114 l -38.76672,0 c -3.4833,0 -6.34292,-0.3642 -8.57886,-1.09259 -2.65175,-0.88391 -5.04402,-2.41766 -7.17682,-4.60126 -1.87256,-1.92492 -3.26349,-3.88833 -4.17279,-5.89023 -0.9093,-2.00188 -1.36396,-4.3025 -1.36395,-6.90188 l 0,-23.24433 c -10e-6,-1.76778 0.58477,-3.7177 1.75433,-5.84976 1.16955,-2.13197 2.74218,-4.0561 4.7179,-5.7724 1.97569,-1.71619 4.22474,-2.89924 6.74716,-3.54913 2.52238,-0.64979 5.13563,-0.97471 7.83975,-0.97476 z"
               style="fill:#000000;fill-opacity:1"
               id="path4448"
               inkscape:connector-curvature="0" />
            <path
               inkscape:connector-curvature="0"
               d="m 388.77603,467.91013 0,11.07172 9.11788,0 3.74483,11.56015 -27.84208,43.14709 13.67681,0 19.86395,-29.30745 13.02555,32.88948 20.51521,-6.51279 -3.25639,-10.09477 -9.44351,2.93075 -22.14342,-55.68418 -17.25883,0 z"
               style="fill:#000000;fill-opacity:1;fill-rule:evenodd;stroke:none"
               id="path4446" />
          </g>
        </g>
      </g>
    </g>
    <path
       inkscape:connector-curvature="0"
       d="m 698.05397,409.54871 c -1.88451,1.4e-4 -3.37138,0.39738 -4.45736,1.19587 -1.08607,0.79863 -2.21125,1.77649 -3.37023,2.93533 -4.64051,4.20268 -8.80647,8.08062 -12.50246,11.63271 -3.69603,3.5524 -6.81269,7.28524 -9.34966,11.19786 -2.53702,3.91288 -4.45701,8.26191 -5.76201,13.04605 -1.30496,4.78432 -1.95689,10.51086 -1.95689,17.17725 0,5.22006 0.29038,9.49543 0.86971,12.82863 0.57951,3.33333 1.59312,6.12404 3.04411,8.37117 1.45095,2.24735 3.44242,4.20308 5.97944,5.87075 2.53697,1.66779 5.7652,3.59 9.67578,5.76196 1.01742,0.72559 2.39271,1.59405 4.13124,2.60921 1.73853,1.01534 3.47767,2.03113 5.21842,3.04411 1.7407,1.01308 3.22535,1.9195 4.4574,2.7179 1.23197,0.79854 1.84815,1.2674 1.8482,1.41334 l 1.95688,3.91382 0,23.04795 c -0.28771,4e-5 -0.94167,0.10967 -1.95688,0.32634 -1.0153,0.21667 -1.6694,0.25486 -1.95693,0.10878 -1.15902,-0.14164 -3.00761,-0.57911 -5.54454,-1.30461 -2.53706,-0.72545 -5.25407,-1.52247 -8.15379,-2.39178 -2.89977,-0.86922 -5.65252,-1.66624 -8.26249,-2.39178 -2.61001,-0.72545 -4.42281,-1.30589 -5.43585,-1.73946 -0.72549,0.86709 -1.26801,1.92083 -1.63076,3.1528 -0.36275,1.23201 -0.57929,2.53586 -0.65228,3.91381 -0.0728,1.378 -0.0728,2.68181 0,3.91382 0.0728,1.23201 0.10878,2.13844 0.10878,2.7179 l 0,1.95693 c 0,0.87144 0.0355,1.84935 0.10878,2.93533 0.0728,1.08602 0.10878,2.06393 0.10878,2.93537 l 0,1.95689 c 1.73852,2.61001 4.09385,4.67514 7.06657,6.19686 2.97271,1.52177 6.19655,2.71844 9.67582,3.5877 3.47923,0.86926 6.95979,1.4497 10.43684,1.73946 3.47701,0.28993 6.52219,0.43467 9.1322,0.43467 5.79944,0 10.43648,-1.34176 13.91576,-4.0225 3.47922,-2.68079 6.16049,-6.08769 8.0451,-10.21942 1.88442,-4.13173 3.08105,-8.66159 3.58765,-13.58959 0.50643,-4.928 0.76093,-9.71015 0.76102,-14.35066 -9e-5,-5.07394 -0.18116,-10.21999 -0.54359,-15.43779 -0.36275,-5.21771 -1.4858,-10.21644 -3.37023,-15.00294 -0.86713,-0.28771 -2.31826,-0.87015 -4.34867,-1.7395 -2.03054,-0.86918 -4.20503,-1.84704 -6.52302,-2.93533 -2.31808,-1.08816 -4.49257,-2.10176 -6.52303,-3.04406 -2.03055,-0.94217 -3.40579,-1.63206 -4.13124,-2.06563 -2.7516,-1.4509 -5.36366,-3.48029 -7.82763,-6.08817 -2.46403,-2.6077 -3.69639,-6.01234 -3.69635,-10.21941 -4e-5,-1.44642 0.10923,-3.47803 0.32634,-6.08813 0.21667,-2.60988 0.65211,-5.14609 1.30461,-7.6102 0.65246,-2.46389 1.66828,-4.63838 3.04411,-6.52299 1.37573,-1.88438 3.15062,-2.82654 5.32711,-2.82663 0.28771,9e-5 0.94163,0.0355 1.95693,0.10878 1.01516,0.0733 1.59342,0.1847 1.73946,0.32634 l 21.52596,11.74144 c 1.15893,-3.91488 1.81085,-7.21238 1.95689,-9.89325 0.14607,-2.68065 0.21756,-5.90671 0.21756,-9.67582 -5e-5,-0.72537 -0.0355,-2.02917 -0.10878,-3.91382 -0.0728,-1.88434 -0.10878,-3.18819 -0.10878,-3.91382 -0.87153,-1.30482 -2.50132,-2.97253 -4.89226,-5.00095 -2.39108,-2.02814 -5.03669,-3.98605 -7.93633,-5.8707 -2.8998,-1.88438 -5.83562,-3.51412 -8.80607,-4.8923 -2.97058,-1.37782 -5.5425,-2.06544 -7.71894,-2.06558 z m -65.25734,1.38613 c -1.5076,1.3e-4 -2.69166,0.31257 -3.56048,0.95127 -0.86882,0.63891 -1.76357,1.43749 -2.69073,2.36456 -3.71237,3.36215 -7.04517,6.45363 -10.00194,9.29532 -2.95682,2.84191 -5.44473,5.83904 -7.4743,8.96916 -2.02961,3.13033 -3.57651,6.60951 -4.62049,10.43679 -1.04397,3.8275 -1.57637,8.3924 -1.57637,13.72555 0,4.17604 0.24287,7.60719 0.70667,10.27376 0.46358,2.66667 1.28533,4.88835 2.44608,6.68607 1.1608,1.79784 2.75396,3.36787 4.78357,4.702 2.02957,1.33426 4.59047,2.88289 7.71889,4.62049 0.81399,0.58044 1.92506,1.28067 3.31589,2.09279 1.39078,0.81225 2.79298,1.60857 4.18558,2.41896 1.39256,0.81043 2.57485,1.53557 3.56048,2.17435 0.98559,0.63879 1.46765,1.02475 1.46769,1.14153 l 1.57642,3.12558 0,18.42755 c -0.22999,0 -0.76426,0.0986 -1.57642,0.27173 -0.81221,0.1736 -1.31921,0.19847 -1.5492,0.0817 -0.92725,-0.11322 -2.40067,-0.4524 -4.43024,-1.03279 -2.02961,-0.58035 -4.20326,-1.23432 -6.52302,-1.92971 -2.31977,-0.6954 -4.54377,-1.32215 -6.63172,-1.90254 -2.088,-0.5804 -3.53828,-1.03932 -4.34867,-1.38617 -0.5804,0.69366 -1.01441,1.51493 -1.3046,2.50052 -0.29038,0.98559 -0.45803,2.05039 -0.51642,3.15275 -0.0582,1.10241 -0.0582,2.14004 0,3.12563 0.0582,0.98559 0.0817,1.71073 0.0817,2.17435 l 0,1.54921 c 0,0.69717 0.0222,1.49579 0.0812,2.36457 0.0582,0.86886 0.10878,1.64027 0.10878,2.33743 l 0,1.57638 c 1.39078,2.088 3.27507,3.72925 5.65327,4.94665 2.37815,1.2174 4.96268,2.18559 7.74607,2.88098 2.78339,0.6954 5.56239,1.15436 8.34405,1.38613 2.78157,0.23176 5.196,0.35342 7.28404,0.35342 4.63953,0 8.36003,-1.06254 11.14347,-3.20714 2.78334,-2.14461 4.93381,-4.87557 6.44146,-8.18093 1.50756,-3.3054 2.47574,-6.92928 2.88103,-10.87169 0.40537,-3.94241 0.59789,-7.78443 0.59793,-11.49685 -4e-5,-4.05914 -0.14474,-8.16511 -0.43467,-12.33934 -0.29038,-4.17417 -1.18322,-8.18403 -2.69078,-12.01321 -0.69366,-0.23 -1.85459,-0.69069 -3.47891,-1.38617 -1.62447,-0.69535 -3.36406,-1.46676 -5.21843,-2.3374 -1.85445,-0.87055 -3.59404,-1.69226 -5.21842,-2.44617 -1.62441,-0.75373 -2.73552,-1.31104 -3.31588,-1.6579 -2.20126,-1.1607 -4.28002,-2.77881 -6.25121,-4.86508 -1.97122,-2.08614 -2.96254,-4.81536 -2.96254,-8.18097 0,-1.15715 0.0986,-2.777 0.27173,-4.86508 0.1736,-2.08791 0.51077,-4.11686 1.03278,-6.08813 0.52197,-1.97114 1.31833,-3.71073 2.41896,-5.21842 1.10059,-1.50751 2.52596,-2.25579 4.26715,-2.25588 0.22999,9e-5 0.76417,0.0222 1.57638,0.0817 0.81216,0.0586 1.26931,0.15851 1.38617,0.27173 l 17.23173,9.37692 c 0.92711,-3.13193 1.43234,-5.76445 1.5492,-7.90915 0.11677,-2.14452 0.19003,-4.73082 0.19048,-7.74611 -5e-5,-0.58026 -0.0222,-1.61789 -0.0817,-3.12558 -0.0582,-1.50752 -0.10878,-2.54514 -0.10878,-3.12563 -0.69721,-1.04389 -2.00106,-2.37265 -3.91381,-3.99533 -1.91289,-1.62251 -4.01301,-3.19432 -6.33278,-4.70201 -2.31985,-1.50751 -4.66302,-2.81132 -7.03939,-3.91381 -2.37647,-1.10228 -4.45577,-1.65781 -6.19687,-1.65794 z m -329.30361,0.19003 c -6.72406,0.46371 -13.58591,0.87233 -20.60186,1.27743 -7.016,0.40537 -13.73545,0.50194 -20.11262,0.27173 l -3.12563,1.57638 c 0,1.97136 0.0222,4.91814 0.0817,8.86046 0.0582,3.9425 0.10878,8.53284 0.10878,13.75268 l 0,15.8183 0,15.81834 c 0,5.10325 -0.0502,9.64723 -0.10878,13.5896 -0.0582,3.9425 -0.0817,6.88928 -0.0817,8.86046 0,1.04402 -0.0462,2.90341 -0.16295,5.57171 -0.11677,2.66844 -0.26151,5.51914 -0.43467,8.5343 -0.17361,3.01521 -0.34277,5.84051 -0.51642,8.50709 -0.1736,2.66662 -0.3179,4.52778 -0.43468,5.57175 -0.23354,0.23 -0.57325,0.71391 -0.97844,1.46769 -0.40537,0.75378 -0.59793,1.30758 -0.59793,1.65794 0,0.58035 -0.0222,1.45019 -0.0817,2.60917 -0.0582,1.15901 -0.15673,2.41656 -0.27173,3.75078 -0.04,0.48968 -0.18115,0.31657 -0.34143,0.94168 0,1.30482 -0.0133,4.76438 -0.0133,5.22796 l 42.9704,0 c -4e-5,0 0.0981,-0.55553 0.27173,-1.65794 0.17361,-1.10236 0.34277,-2.40617 0.51642,-3.91377 0.1736,-1.5076 0.3179,-3.05627 0.43467,-4.62049 0.11678,-1.56421 0.24021,-2.84262 0.35343,-3.88664 -5e-5,-0.23354 0.0222,-0.86256 0.0813,-1.84819 0.0582,-0.98559 0.0817,-1.757 0.0817,-2.3374 -5e-5,-0.34676 0.0222,-0.78259 0.0817,-1.3046 0.0582,-0.52197 0.0355,-1.0775 -0.0817,-1.65794 -0.11678,-0.58035 -0.28461,-1.06245 -0.51642,-1.46769 -0.23177,-0.40537 -0.64624,-0.67137 -1.22304,-0.78819 -0.58044,0 -1.49655,0.0222 -2.77229,0.0817 -1.27584,0.0582 -2.72434,0.0817 -4.34867,0.0813 -1.50765,5e-5 -2.90985,-0.0222 -4.18559,-0.0813 -1.27584,-0.0582 -2.19194,-0.0817 -2.77229,-0.0817 -0.69366,-0.11322 -1.66363,-0.35786 -2.88103,-0.70667 -1.2174,-0.34854 -1.82102,-0.63612 -1.82098,-0.8697 l 0,-31.31048 c -4e-5,4e-5 0.55727,-0.071 1.6579,-0.24465 1.10059,-0.17316 2.40621,-0.34277 3.91386,-0.51641 1.50756,-0.17316 3.02723,-0.31791 4.59327,-0.43468 1.56594,-0.11677 2.86975,-0.23665 3.91381,-0.35342 0.58036,8e-5 1.64516,-0.075 3.15276,-0.19004 1.5076,-0.11499 2.54874,-0.16294 3.12562,-0.16294 l 0,-19.48752 c -0.57688,5e-5 -1.44846,-0.0222 -2.60921,-0.0817 -1.16079,-0.0582 -2.41833,-0.13186 -3.75073,-0.19047 -1.33244,-0.0582 -2.56281,-0.10479 -3.72356,-0.16295 -1.1608,-0.0582 -1.98255,-0.0817 -2.44613,-0.0817 -0.22999,9e-5 -0.71391,-0.075 -1.46764,-0.19047 -0.75383,-0.115 -1.57558,-0.28461 -2.44613,-0.51637 -0.87064,-0.23177 -1.71553,-0.54426 -2.52769,-0.95132 -0.81221,-0.4067 -1.27291,-0.89071 -1.38613,-1.46764 l 0,-1.41334 c -4e-5,-0.57676 -0.0222,-1.25332 -0.0817,-2.06562 -0.0582,-0.81212 -0.0817,-1.51231 -0.0817,-2.0928 l 0,-1.38612 c 0,-0.23354 -0.0502,-1.05525 -0.10878,-2.44613 -0.0582,-1.39074 0.0178,-2.88729 0.19003,-4.51179 0.17361,-1.62424 0.48587,-3.12483 0.95127,-4.45736 0.46536,-1.33231 1.21541,-1.98402 2.25588,-1.98411 l 20.35726,0 0,-21.90647 z m 296.57983,0 c -6.72407,0.46371 -13.58591,0.87233 -20.60186,1.27743 -7.016,0.40537 -13.70828,0.50194 -20.08545,0.27173 l -3.12563,1.57638 c 0,1.97136 0.0222,4.91814 0.0817,8.86046 0.0582,3.9425 0.0813,8.53284 0.0813,13.75268 l 0,15.8183 0,15.81834 c 0,5.10325 -0.0222,9.64723 -0.0813,13.5896 -0.0582,3.9425 -0.0817,6.88928 -0.0817,8.86046 0,1.04402 -0.0733,2.90341 -0.19003,5.57171 -0.11677,2.66844 -0.26152,5.51914 -0.43468,8.5343 -0.1736,3.01521 -0.34277,5.84051 -0.51641,8.50709 -0.17361,2.66662 -0.31791,4.52778 -0.43468,5.57175 -0.23354,0.23 -0.54608,0.71391 -0.95127,1.46769 -0.40537,0.75378 -0.62515,1.30758 -0.62515,1.65794 0,0.58035 -0.0222,1.45019 -0.0813,2.60917 -0.0582,1.15901 0.15273,2.47188 -0.24465,3.75078 -0.0617,0.19846 -0.12121,0.40492 -0.34454,0.94252 0,1.37267 -0.009,4.76354 -0.009,5.22712 l 42.97036,0 c -4e-5,0 0.071,-0.55553 0.24465,-1.65794 0.1736,-1.10236 0.34276,-2.40617 0.51641,-3.91377 0.17361,-1.5076 0.31791,-3.05627 0.43468,-4.62049 0.11677,-1.56421 0.2402,-2.84262 0.35342,-3.88664 -4e-5,-0.23354 0.0222,-0.86256 0.0817,-1.84819 0.0582,-0.98559 0.10878,-1.757 0.10878,-2.3374 -5e-5,-0.34676 0.0222,-0.78259 0.0817,-1.3046 0.0582,-0.52197 0.0355,-1.0775 -0.0817,-1.65794 -0.11677,-0.58035 -0.31169,-1.06245 -0.54359,-1.46769 -0.23177,-0.40537 -0.61907,-0.67137 -1.19587,-0.78819 -0.58044,0 -1.52372,0.0222 -2.79947,0.0817 -1.27583,0.0582 -2.72433,0.0817 -4.34866,0.0813 -1.50765,5e-5 -2.88267,-0.0222 -4.15846,-0.0813 -1.27579,-0.0582 -2.21907,-0.0817 -2.79942,-0.0817 -0.69366,-0.11322 -1.63645,-0.35786 -2.85381,-0.70667 -1.21745,-0.34854 -1.84824,-0.63612 -1.8482,-0.8697 l 0,-31.31048 c -4e-5,4e-5 0.55727,-0.071 1.65794,-0.24465 1.10055,-0.17316 2.40617,-0.34277 3.91377,-0.51641 1.50761,-0.17316 3.05446,-0.31791 4.62049,-0.43468 1.56594,-0.11677 2.86979,-0.23665 3.91381,-0.35342 0.58036,8e-5 1.61799,-0.075 3.12563,-0.19004 1.50751,-0.11499 2.54869,-0.16294 3.12558,-0.16294 l 0,-19.48752 c -0.57689,5e-5 -1.44846,-0.0222 -2.60921,-0.0817 -1.16079,-0.0582 -2.39116,-0.13186 -3.72356,-0.19047 -1.33244,-0.0582 -2.58998,-0.10479 -3.75073,-0.16295 -1.1608,-0.0582 -1.98255,-0.0817 -2.44613,-0.0817 -0.22999,9e-5 -0.71391,-0.075 -1.46764,-0.19047 -0.75387,-0.115 -1.57563,-0.28461 -2.44618,-0.51637 -0.87059,-0.23177 -1.68831,-0.54426 -2.50047,-0.95132 -0.81221,-0.4067 -1.30008,-0.89071 -1.4133,-1.46764 l 0,-1.41334 c -4e-5,-0.57676 -0.0222,-1.25332 -0.0817,-2.06562 -0.0582,-0.81212 -0.0817,-1.51231 -0.0817,-2.0928 l 0,-1.38612 c 0,-0.23354 -0.0222,-1.05525 -0.0812,-2.44613 -0.0582,-1.39074 -0.009,-2.88729 0.16295,-4.51179 0.1736,-1.62424 0.48587,-3.12483 0.95127,-4.45736 0.46531,-1.33231 1.24253,-1.98402 2.28304,-1.98411 l 20.33005,0 0,-21.90647 z M 172.625,411.28782 c 0,12.75807 0.2522,25.47698 0.76102,38.15962 0.50874,12.68286 1.08918,25.36608 1.73946,38.05093 0.65028,12.68504 1.26651,25.40395 1.84819,38.15967 0.58173,12.75577 0.86975,25.51482 0.86975,38.26836 l 18.48186,0 3.91382,-3.91382 2.39178,-59.14199 c 0.43334,-0.14608 1.3399,-0.28905 2.71794,-0.43468 1.37796,-0.14607 2.93627,-0.29126 4.67479,-0.43467 1.73848,-0.14386 3.51342,-0.32679 5.32716,-0.54359 1.81365,-0.21668 3.29834,-0.39738 4.4574,-0.54359 0.72541,9e-5 1.73902,9e-5 3.04407,0 1.4465,9e-5 2.67887,-0.0715 3.69639,-0.21756 l 0.11632,67.18705 27.09186,-0.009 c 0,-1.02613 -0.0524,-2.4523 -0.0524,-5.20869 -0.3259,-5.56288 -1.16475,-22.75745 -1.8172,-28.15768 -1.30505,-10.80044 -2.31498,-21.85164 -2.75285,-33.15868 l 0,-31.31048 c -9e-5,-1.01734 -0.0466,-2.93515 -0.19047,-5.76201 -0.14386,-2.82664 -0.32679,-5.79815 -0.54355,-8.91476 -0.21667,-3.1164 -0.43334,-6.05221 -0.65232,-8.80608 -0.2189,-2.75364 -0.40227,-4.71159 -0.54359,-5.87074 0.867,-1.45082 1.5211,-3.33511 1.95693,-5.65328 0.43556,-2.31785 0.72589,-4.67323 0.86975,-7.06657 0.14385,-2.39311 0.17937,-4.5676 0.10878,-6.52302 -0.071,-1.95516 -0.10878,-3.36837 -0.10878,-4.23998 l -22.42289,0 c -0.28771,1.3e-4 -0.51713,1.12314 -0.73384,3.37022 -0.21667,2.2474 -0.43335,5.25466 -0.65233,9.02351 -0.21889,3.76911 -0.36408,8.04448 -0.43467,12.82862 -0.071,4.78432 -0.10878,9.64017 -0.10878,14.56804 l 0,19.13418 c -2.46851,1.3e-4 -5.94463,-0.0737 -10.43684,-0.21756 -4.49231,-0.14386 -8.69623,-0.36008 -12.61116,-0.65228 0.14608,-2.03037 0.25308,-3.9504 0.3259,-5.76201 0.0728,-1.81143 0.10878,-2.93662 0.10878,-3.37023 l 0,-52.83644 z m 276.76616,1.38612 c -0.11322,1.3e-4 -0.25974,0.36452 -0.43468,1.06001 -0.17538,0.69552 -0.34321,1.53815 -0.51642,2.58203 -0.1736,1.04407 -0.31968,2.10892 -0.43467,3.15276 -0.115,1.04411 -0.19048,1.91568 -0.19004,2.60921 -4e-5,0.46371 -0.0222,1.21199 -0.0817,2.25587 -0.0582,1.04411 -0.36541,2.35884 -0.42402,3.46112 0,1.10249 -0.0133,1.79038 -0.0133,3.23432 0,1.05099 8e-4,1.53841 8.9e-4,2.00195 l 17.74801,0 0,59.49533 c -0.5804,1.97123 -1.01441,3.94987 -1.30461,5.97944 -0.29037,2.02961 -0.43467,4.22865 -0.43467,6.5502 l 0,12.50241 0,3.1528 c 0,1.5076 0.0222,3.05224 0.0817,4.67483 0.0582,1.62265 0.0813,3.19441 0.0813,4.70201 l 0,3.12563 c 0.34676,0.11677 1.04881,0.26151 2.09279,0.43467 1.04398,0.17361 2.15686,0.34277 3.31588,0.51642 1.15897,0.1736 2.24464,0.3179 3.28871,0.43467 1.04393,0.11678 1.81942,0.19048 2.283,0.19048 0.34677,0 0.95043,-0.0737 1.82102,-0.19048 0.87055,-0.11677 1.80979,-0.26151 2.85386,-0.43467 1.04393,-0.17361 2.01212,-0.34321 2.88098,-0.51642 0.86877,-0.17316 1.47417,-0.3179 1.82102,-0.43467 0.11677,-0.46358 0.25974,-1.35656 0.43468,-2.69073 0.17538,-1.33422 0.34277,-2.75955 0.51641,-4.26715 0.17361,-1.50761 0.31968,-2.93471 0.43468,-4.26715 0.115,-1.3324 0.19003,-2.27342 0.19003,-2.85381 -4e-5,-1.97119 0.0222,-5.30576 0.0817,-10.00199 0.0582,-4.69615 0.0813,-9.72049 0.0813,-15.05729 0,-5.33315 -0.0222,-10.33387 -0.0813,-15.03011 -0.0586,-4.69614 -0.0817,-8.03067 -0.0817,-10.00194 l 1.54921,-3.12563 c 0,-0.69712 -0.0266,-1.95289 -0.0813,-3.75073 -0.0568,-1.79771 -0.0817,-3.682 -0.0817,-5.65327 0,-1.97114 0.0266,-3.85721 0.0817,-5.65328 0.0564,-1.79593 0.0813,-3.05348 0.0813,-3.75073 0,-1.04394 0.0733,-2.39578 0.19047,-4.0769 0.11677,-1.68089 0.26152,-3.29901 0.43468,-4.86508 0.17316,-1.5659 0.34277,-2.94497 0.51642,-4.10407 0.17316,-1.15893 0.3179,-1.73937 0.43467,-1.73946 l 10.95321,0 0,-19.6506 z m 60.03892,0 -3.12559,1.57638 c -4e-5,1.97136 0.0222,4.91814 0.0813,8.86046 0.0582,3.9425 0.10878,8.53284 0.10878,13.75268 l 0,15.8183 0,15.81834 c 0,5.10325 -0.0502,9.64723 -0.10878,13.5896 -0.0582,3.9425 -0.0817,6.88928 -0.0813,8.86046 -4e-5,1.04402 -0.0462,2.90341 -0.16294,5.57171 -0.11678,2.66844 -0.26152,5.51915 -0.43468,8.53431 -0.1736,3.0152 -0.34321,5.8405 -0.51642,8.50708 -0.1736,2.66662 -0.3179,4.52778 -0.43467,5.57176 -0.23355,0.22999 -0.57329,0.7139 -0.97849,1.46768 -0.40537,0.75378 -0.59793,1.30758 -0.59793,1.65794 0,0.58035 -0.0222,1.45019 -0.0817,2.60917 -0.0582,1.15902 0.0355,0.99935 -0.0777,2.33353 -0.115,1.33422 -0.23488,1.25412 -0.53582,2.40342 0,1.64435 -0.0133,4.71989 -0.0133,5.18347 l 45.57957,-0.70662 c -4e-5,0 0.0981,-0.50523 0.27173,-1.54925 0.17361,-1.04398 0.34099,-2.32465 0.51642,-3.83225 0.17494,-1.50761 0.31968,-3.07941 0.43468,-4.70201 0.11499,-1.6226 0.23665,-2.95136 0.35342,-3.99533 -5e-5,-0.23355 0.0222,-0.83543 0.0817,-1.82102 0.0582,-0.9856 0.0817,-1.78417 0.0817,-2.36462 -9e-5,-0.34676 0.0222,-0.78259 0.0812,-1.3046 0.0582,-0.52197 0.0582,-1.0775 0,-1.65794 -0.0582,-0.58035 -0.22644,-1.06245 -0.51641,-1.46764 -0.29038,-0.40537 -0.72426,-0.67142 -1.30461,-0.78824 -0.58044,5e-5 -1.93229,0.14475 -4.07685,0.43512 -2.14465,0.29038 -4.02895,0.43468 -5.65327,0.43468 -1.50765,4e-5 -2.90989,-0.0222 -4.18564,-0.0817 -1.27583,-0.0582 -2.19189,-0.0817 -2.77229,-0.0817 -0.69366,-0.11322 -1.66362,-0.35787 -2.88098,-0.70667 -1.21745,-0.34854 -1.82102,-0.63617 -1.82102,-0.86971 l 0,-56.34258 0,-1.41334 c 0,-0.57675 -0.0222,-1.25332 -0.0812,-2.06562 -0.0586,-0.81208 -0.0817,-1.51231 -0.0817,-2.09279 l 0,-1.38613 c 0,-0.11677 0.16961,-1.00965 0.51642,-2.69077 0.34676,-1.6809 0.70733,-3.7851 1.11435,-6.27838 0.40714,-2.49311 0.8178,-5.12567 1.22308,-7.90915 0.40538,-2.7833 0.69628,-5.39269 0.86971,-7.82763 0.1736,-2.43468 0.1736,-4.46367 0,-6.08813 -0.1736,-1.62429 -0.61099,-2.44604 -1.3046,-2.44617 z m -147.12118,0.70667 -24.3526,0.3259 c -0.11677,1.3e-4 -0.36008,0.62915 -0.70667,1.84819 -0.34676,1.21931 -0.6362,2.16033 -0.8697,2.85386 -0.11678,0.35031 -0.26152,0.90598 -0.43468,1.65794 -0.1736,0.75209 -0.34321,1.52531 -0.51642,2.33739 -0.1736,0.8123 -0.3179,1.61088 -0.43467,2.36461 -0.11677,0.75387 -0.16295,1.23419 -0.16295,1.46764 l -6.27838,11.82297 c -0.34677,1.6245 -0.61485,3.21944 -0.78819,4.78356 -0.1736,1.56431 -0.34321,2.99141 -0.51642,4.26716 -0.1736,1.27587 -0.29481,2.3135 -0.35342,3.12558 -0.0586,0.8123 -0.0817,1.29661 -0.0817,1.41334 -1.39083,6.03045 -2.62115,11.31871 -3.72351,15.89986 -1.10241,4.58124 -2.19039,8.76243 -3.23437,12.52964 -1.04397,3.76725 -2.0816,7.368 -3.12558,10.79013 -1.04402,3.42222 -2.08165,7.0461 -3.12563,10.87169 -1.04402,3.82568 -2.19473,8.04932 -3.39739,12.69272 -0.60167,2.32283 -1.28938,4.12574 -4.06514,11.14524 -0.1181,1.34736 -0.0355,1.93114 -0.0133,5.21665 l 26.41823,3.99533 1.57633,-13.39934 c 0,-0.46358 0.12166,-1.21186 0.35342,-2.25588 0.23177,-1.04397 0.5229,-2.37096 0.86975,-3.99533 1.62433,-0.22999 3.5318,-0.47486 5.73484,-0.70667 2.20295,-0.23177 4.06407,-0.47308 5.57171,-0.70667 0.46358,0 1.67078,0 3.642,0 1.97474,0 3.78781,-0.0462 5.40868,-0.16295 0.23354,2.43485 0.44764,4.87468 0.67949,7.31122 0.23177,2.43658 0.52286,4.63336 0.86971,6.60454 0.34677,1.97123 0.75769,3.56616 1.22309,4.78357 0.46531,1.2174 1.0458,1.82102 1.7395,1.82102 l 5.0553,0 c 2.55153,0 5.01453,-0.14475 7.39277,-0.43468 2.37811,-0.29037 9.13224,-1.82102 9.13224,-1.82102 l -0.009,-5.21762 -0.61747,-2.9633 c 0,0 -0.88738,-5.84522 -1.46769,-8.86042 -0.58048,-3.0152 -1.16092,-5.98743 -1.73946,-8.88764 -0.57871,-2.90016 -1.11288,-5.55586 -1.57642,-7.99067 -1.74123,-9.39237 -3.45592,-18.62282 -5.13686,-27.66848 -1.68107,-9.04552 -3.27601,-18.32228 -4.78356,-27.83151 -0.92725,-5.10312 -1.79705,-9.81267 -2.60917,-14.16041 -0.81225,-4.34751 -1.31575,-9.30011 -1.54925,-14.86703 z m 28.02178,2.41896 -1.57638,1.57638 c -0.11677,0.11322 -0.26152,1.42071 -0.43468,3.91381 -0.1736,2.49333 -0.34143,5.72947 -0.51641,9.73017 -0.17538,4.00089 -0.39339,8.49456 -0.62516,13.48091 -0.23176,4.98647 -0.42446,10.01255 -0.59793,15.05728 -0.1736,5.04486 -0.34321,9.89911 -0.51642,14.59526 -0.1736,4.69623 -0.3179,8.72926 -0.43467,12.09473 0,1.50765 -0.0222,4.04586 -0.0817,7.58304 -0.0582,3.53721 -0.15673,7.37701 -0.27173,11.55114 -0.11499,4.17427 -0.18603,8.42894 -0.24464,12.71989 -0.0582,4.29104 -0.10878,7.98787 -0.10878,11.11634 l 0,5.57171 21.06389,0 0,-54.79333 7.82763,0 c 0.23355,1.04407 0.54603,2.66214 0.95127,4.86509 0.40537,2.20304 0.86411,4.69095 1.38617,7.4743 0.52197,2.78343 1.05437,5.73252 1.57638,8.80607 0.52196,3.07363 1.02719,5.99551 1.5492,8.7789 0.52197,2.78339 0.98089,5.2713 1.38617,7.4743 0.40537,2.20299 0.74481,3.82106 0.97844,4.86508 0.23,1.27402 0.5923,2.91699 1.11435,4.94661 0.52193,2.02956 0.95598,3.74607 1.30461,5.13685 0.34854,1.39083 0.58985,2.21259 0.70663,2.44613 l 19.29726,0 c 0,-2.26138 -0.0133,-2.99695 -0.0133,-5.26086 -0.30326,-2.23377 -1.1976,-5.93548 -1.80628,-8.13848 -1.21745,-4.40599 -2.52126,-8.77819 -3.91382,-13.12757 -1.39261,-4.34938 -2.69641,-8.6735 -3.91377,-12.96449 -1.21745,-4.29095 -1.82107,-8.64002 -1.82102,-13.04605 -5e-5,-0.34676 0.48205,-0.90407 1.46768,-1.65794 0.98555,-0.75374 2.07348,-1.64666 3.23432,-2.69073 1.16071,-1.04393 2.22151,-2.2743 3.20715,-3.72356 0.98554,-1.44913 1.49481,-3.06951 1.49486,-4.81074 -5e-5,-7.65114 -0.36453,-15.09343 -1.06001,-22.34133 -0.69544,-7.24767 -1.39567,-14.51684 -2.09279,-21.8249 -0.11678,-0.69353 -0.21135,-1.5651 -0.32634,-2.60921 -0.115,-1.04389 -0.25974,-2.05839 -0.43468,-3.04407 -0.17538,-0.9855 -0.3703,-1.8553 -0.54359,-2.60921 -0.1736,-0.75369 -0.24464,-1.14143 -0.24464,-1.14152 z m 17.20446,17.23164 10.95322,0 c 1.04397,9e-5 1.81942,0.77327 2.28304,2.33739 0.46358,1.56435 0.77785,3.32707 0.95127,5.29994 0.17361,1.97309 0.21978,3.83247 0.16295,5.57176 -0.0564,1.7395 -0.0817,2.80608 -0.0813,3.1528 -4e-5,0.69725 -0.0222,1.75801 -0.0817,3.20714 -0.0582,1.44926 -0.0817,2.22426 -0.0813,2.33739 l -3.1528,3.12563 -10.95321,0 0,-25.03205 z m -61.23483,30.25047 c 0.81039,9e-5 1.68196,0.63084 2.60921,1.8482 0.92716,1.21744 1.55218,2.27643 1.90254,3.20714 0.11677,0.57689 0.31169,1.83621 0.54359,3.75074 0.23176,1.91461 0.47255,4.11139 0.76106,6.60454 0.28815,2.49324 0.57946,5.10267 0.8697,7.82763 0.28994,2.72505 0.55456,5.18801 0.78819,7.39273 -1.27761,5e-5 -2.77238,-0.0462 -4.51175,-0.16294 -1.73946,-0.11678 -3.45592,-0.21312 -5.13686,-0.27173 -1.68107,-0.0582 -3.13131,-0.15673 -4.34866,-0.27173 -1.21745,-0.115 -1.99063,-0.16295 -2.33744,-0.16295 l -0.54359,0 c 0.69712,-3.59555 1.51888,-7.1714 2.44613,-10.70861 0.9272,-3.53717 1.84504,-6.72527 2.77229,-9.56714 0.92716,-2.84169 1.77382,-5.13685 2.52769,-6.87631 0.75374,-1.73933 1.30749,-2.60912 1.6579,-2.60921 z"
       style="font-style:normal;font-variant:normal;font-weight:normal;font-stretch:normal;font-size:250px;line-height:125%;font-family:'Grim Ghost';-inkscape-font-specification:'Grim Ghost';text-align:center;letter-spacing:0px;word-spacing:0px;writing-mode:lr-tb;text-anchor:middle;opacity:0.98999999;fill:#640000;fill-opacity:1;stroke:none"
       id="path3094"
       sodipodi:nodetypes="ccccccsscccccccccccccccscssssscsssscccccccccccccscccccccccccccccccccsccccccccccccccccccssssscssssccccccccccccsscccccccccccccccccccscssccsscssssccccccccccccccccccccccccccccccccccccccccccccccccccsscssscssccssscccccccscccccccccccccccccccccccccccccccccscccccssscccccccccccccccccccccccccccccccccccccccsccccccccscccscsscsccccccccsscccccccccccccccccscsscssscsssccccccccccsccccccccccccccsssccccccscscccccsccssssscccccccccccccsssccccccccccccsssssccsssccccccccccccccccccccsscccccccccccccsccccccccccccccccccccssc" />
    <path
       id="path3043"
       style="font-style:normal;font-variant:normal;font-weight:normal;font-stretch:normal;font-size:250px;line-height:125%;font-family:'Grim Ghost';-inkscape-font-specification:'Grim Ghost';text-align:center;letter-spacing:0px;word-spacing:0px;writing-mode:lr-tb;text-anchor:middle;opacity:0.98999999;fill:url(#linearGradient3027);fill-opacity:1;stroke:none"
       d="m 698.05397,404.33029 c -1.88451,1.4e-4 -3.37138,0.39738 -4.45736,1.19587 -1.08607,0.79863 -2.21125,1.77649 -3.37023,2.93533 -4.64051,4.20268 -8.80647,8.08062 -12.50246,11.63276 -3.69603,3.55235 -6.81269,7.28519 -9.34966,11.19781 -2.53702,3.91288 -4.45701,8.26195 -5.76201,13.04605 -1.30496,4.78432 -1.95689,10.51086 -1.95689,17.17729 0,5.22007 0.29038,9.49539 0.86971,12.82859 0.57951,3.33333 1.59312,6.12404 3.04411,8.37117 1.45095,2.24735 3.44242,4.20308 5.97944,5.87075 2.53697,1.66779 5.7652,3.59 9.67578,5.76201 1.01742,0.72554 2.39271,1.594 4.13124,2.60916 1.73853,1.01534 3.47767,2.03112 5.21842,3.04411 1.7407,1.01308 3.22535,1.9195 4.4574,2.7179 1.23197,0.79854 1.84815,1.2674 1.8482,1.41334 l 1.95688,3.91382 0,23.04799 c -0.28771,0 -0.94167,0.10923 -1.95688,0.3259 -1.0153,0.21667 -1.6694,0.25486 -1.95693,0.10878 -1.15902,-0.14164 -3.00761,-0.57911 -5.54454,-1.30461 -2.53706,-0.72545 -5.25407,-1.52247 -8.15379,-2.39178 -2.89977,-0.86922 -5.65252,-1.66624 -8.26249,-2.39174 -2.61001,-0.72549 -4.42281,-1.30594 -5.43585,-1.7395 -0.72549,0.86709 -1.26801,1.92083 -1.63076,3.1528 -0.36275,1.23205 -0.57929,2.53586 -0.65228,3.91381 -0.0728,1.378 -0.0728,2.68185 0,3.91382 0.0728,1.23201 0.10878,2.13844 0.10878,2.7179 l 0,1.95693 c 0,0.87148 0.0355,1.84935 0.10878,2.93533 0.0728,1.08607 0.10878,2.06393 0.10878,2.93537 l 0,1.95689 c 1.73852,2.61001 4.09385,4.67514 7.06657,6.19686 2.97271,1.52177 6.19655,2.71844 9.67582,3.5877 3.47923,0.86926 6.95979,1.4497 10.43684,1.73946 3.47701,0.28993 6.52219,0.43467 9.1322,0.43467 5.79944,0 10.43648,-1.34176 13.91576,-4.0225 3.47922,-2.68079 6.16049,-6.08764 8.0451,-10.21942 1.88442,-4.13173 3.08105,-8.66159 3.58765,-13.58959 0.50643,-4.928 0.76093,-9.71015 0.76102,-14.35066 -9e-5,-5.07394 -0.18116,-10.21999 -0.54359,-15.43779 -0.36275,-5.21771 -1.4858,-10.21644 -3.37023,-15.00294 -0.86713,-0.28771 -2.31826,-0.87015 -4.34867,-1.73946 -2.03054,-0.86917 -4.20503,-1.84708 -6.52302,-2.93537 -2.31808,-1.08816 -4.49257,-2.10176 -6.52303,-3.04407 -2.03055,-0.94216 -3.40579,-1.63201 -4.13124,-2.06562 -2.7516,-1.4509 -5.36366,-3.48029 -7.82763,-6.08817 -2.46403,-2.60765 -3.69639,-6.01234 -3.69635,-10.21937 -4e-5,-1.44646 0.10923,-3.47807 0.32634,-6.08817 0.21667,-2.60988 0.65211,-5.14605 1.30461,-7.61016 0.65246,-2.46389 1.66828,-4.63842 3.04411,-6.52303 1.37573,-1.88438 3.15062,-2.82654 5.32711,-2.82663 0.28771,9e-5 0.94163,0.0355 1.95693,0.10878 1.01516,0.0733 1.59342,0.1847 1.73946,0.32634 l 21.52596,11.74144 c 1.15893,-3.91488 1.81085,-7.21238 1.95689,-9.89325 0.14607,-2.68065 0.21756,-5.90671 0.21756,-9.67582 -5e-5,-0.72537 -0.0355,-2.02917 -0.10878,-3.91378 -0.0728,-1.88438 -0.10878,-3.18823 -0.10878,-3.91386 -0.87153,-1.30482 -2.50132,-2.97253 -4.89226,-5.00095 -2.39108,-2.02814 -5.03669,-3.98605 -7.93633,-5.8707 -2.8998,-1.88438 -5.83562,-3.51412 -8.80607,-4.89225 -2.97058,-1.37783 -5.5425,-2.06549 -7.71894,-2.06563 z m -65.25734,1.38613 c -1.5076,1.3e-4 -2.69166,0.31257 -3.56048,0.95127 -0.86882,0.63891 -1.76357,1.43749 -2.69073,2.36461 -3.71237,3.3621 -7.04517,6.45363 -10.00194,9.29527 -2.95682,2.84191 -5.44473,5.83904 -7.4743,8.96916 -2.02961,3.13033 -3.57651,6.60956 -4.62049,10.43684 -1.04397,3.82745 -1.57637,8.39235 -1.57637,13.7255 0,4.17604 0.24287,7.60719 0.70667,10.27376 0.46358,2.66667 1.28533,4.88835 2.44608,6.68606 1.1608,1.79785 2.75396,3.36792 4.78357,4.70205 2.02957,1.33422 4.59047,2.88285 7.71889,4.62044 0.81399,0.58045 1.92506,1.28068 3.31589,2.0928 1.39078,0.81225 2.79298,1.60857 4.18558,2.41895 1.39256,0.81048 2.57485,1.53558 3.56048,2.17436 0.98559,0.63883 1.46765,1.02475 1.46769,1.14153 l 1.57642,3.12562 0,18.42751 c -0.22999,0 -0.76426,0.0986 -1.57642,0.27173 -0.81221,0.1736 -1.31921,0.19847 -1.5492,0.0817 -0.92725,-0.11322 -2.40067,-0.4524 -4.43024,-1.03284 -2.02961,-0.58035 -4.20326,-1.23427 -6.52302,-1.92971 -2.31977,-0.69539 -4.54377,-1.32214 -6.63172,-1.90254 -2.088,-0.58035 -3.53828,-1.03932 -4.34867,-1.38617 -0.5804,0.69366 -1.01441,1.51493 -1.3046,2.50052 -0.29038,0.98559 -0.45803,2.05039 -0.51642,3.15276 -0.0582,1.1024 -0.0582,2.14003 0,3.12562 0.0582,0.98564 0.0817,1.71074 0.0817,2.17436 l 0,1.5492 c 0,0.69717 0.0222,1.4958 0.0812,2.36462 0.0582,0.86881 0.10878,1.64022 0.10878,2.33739 l 0,1.57642 c 1.39078,2.08796 3.27507,3.7292 5.65327,4.9466 2.37815,1.21741 4.96268,2.18559 7.74607,2.88099 2.78339,0.69543 5.56239,1.15435 8.34405,1.38617 2.78157,0.23176 5.196,0.35342 7.28404,0.35342 4.63953,0 8.36003,-1.06249 11.14347,-3.20715 2.78334,-2.1446 4.93381,-4.87552 6.44146,-8.18092 1.50756,-3.3054 2.47574,-6.92928 2.88103,-10.87169 0.40537,-3.94241 0.59789,-7.78443 0.59793,-11.4968 -4e-5,-4.05919 -0.14474,-8.16516 -0.43467,-12.33939 -0.29038,-4.17417 -1.18322,-8.18403 -2.69078,-12.01322 -0.69366,-0.22999 -1.85459,-0.69068 -3.47891,-1.38616 -1.62447,-0.69535 -3.36406,-1.46676 -5.21843,-2.3374 -1.85445,-0.87055 -3.59404,-1.69226 -5.21842,-2.44613 -1.62441,-0.75373 -2.73552,-1.31104 -3.31588,-1.65794 -2.20126,-1.1607 -4.28002,-2.77877 -6.25121,-4.86508 -1.97122,-2.08614 -2.96254,-4.81531 -2.96254,-8.18097 0,-1.15715 0.0986,-2.777 0.27173,-4.86508 0.1736,-2.08787 0.51077,-4.11686 1.03278,-6.08813 0.52197,-1.97114 1.31833,-3.71073 2.41896,-5.21842 1.10059,-1.50752 2.52596,-2.25579 4.26715,-2.25588 0.22999,9e-5 0.76417,0.0222 1.57638,0.0813 0.81216,0.0586 1.26931,0.15851 1.38617,0.27173 l 17.23173,9.37693 c 0.92711,-3.13189 1.43234,-5.76445 1.5492,-7.90915 0.11677,-2.14452 0.19003,-4.73082 0.19048,-7.74611 -5e-5,-0.58027 -0.0222,-1.6179 -0.0817,-3.12559 -0.0582,-1.50751 -0.10878,-2.54509 -0.10878,-3.12562 -0.69721,-1.04389 -2.00106,-2.37261 -3.91381,-3.99534 -1.91289,-1.62251 -4.01301,-3.19431 -6.33278,-4.702 -2.31985,-1.50752 -4.66302,-2.81132 -7.03939,-3.91382 -2.37647,-1.10227 -4.45577,-1.6578 -6.19687,-1.65794 z m -329.30361,0.19047 c -6.72406,0.46372 -13.58591,0.87233 -20.60186,1.27743 -7.016,0.40538 -13.73545,0.50195 -20.11262,0.27173 l -3.12563,1.57642 c 0,1.97132 0.0222,4.91815 0.0817,8.86042 0.0582,3.9425 0.10878,8.53284 0.10878,13.75268 l 0,15.81835 0,15.81829 c 0,5.10325 -0.0502,9.64728 -0.10878,13.5896 -0.0582,3.9425 -0.0817,6.88928 -0.0817,8.86046 0,1.04403 -0.0462,2.90341 -0.16295,5.57176 -0.11677,2.6684 -0.26151,5.5191 -0.43467,8.53426 -0.17361,3.0152 -0.34277,5.84051 -0.51642,8.50708 -0.1736,2.66667 -0.3179,4.52778 -0.43468,5.57176 -0.23354,0.22999 -0.57325,0.71391 -0.97844,1.46768 -0.40537,0.75378 -0.59793,1.30758 -0.59793,1.65794 0,0.5804 -0.0222,1.4502 -0.0817,2.60921 -0.0582,1.15902 -0.15673,2.41652 -0.27173,3.75074 -0.11499,1.33417 -0.18603,2.5645 -0.24464,3.72352 -0.0582,1.15901 -0.10878,1.98254 -0.10878,2.44613 l 42.97041,0 c -5e-5,0 0.0981,-0.55554 0.27172,-1.6579 0.17361,-1.10241 0.34277,-2.40621 0.51642,-3.91382 0.1736,-1.5076 0.3179,-3.05627 0.43468,-4.62048 0.11677,-1.56421 0.2402,-2.84262 0.35342,-3.8866 -4e-5,-0.23354 0.0222,-0.8626 0.0817,-1.84819 0.0582,-0.9856 0.0813,-1.75705 0.0813,-2.33744 -5e-5,-0.34677 0.0222,-0.7826 0.0817,-1.30461 0.0582,-0.52196 0.0355,-1.0775 -0.0817,-1.65794 -0.11677,-0.58035 -0.28461,-1.06245 -0.51642,-1.46764 -0.23177,-0.40537 -0.64624,-0.67142 -1.22304,-0.78823 -0.58044,4e-5 -1.4965,0.0222 -2.77229,0.0817 -1.27584,0.0582 -2.72434,0.0817 -4.34867,0.0817 -1.50765,4e-5 -2.90984,-0.0222 -4.18559,-0.0817 -1.27583,-0.0582 -2.19194,-0.0817 -2.77229,-0.0817 -0.69366,-0.11322 -1.66362,-0.35787 -2.88098,-0.70667 -1.21745,-0.34854 -1.82107,-0.63612 -1.82103,-0.86971 l 0,-31.31048 c -4e-5,4e-5 0.55727,-0.071 1.65794,-0.24464 1.10059,-0.17361 2.40617,-0.34277 3.91382,-0.51642 1.50756,-0.17316 3.02724,-0.31791 4.59327,-0.43468 1.56594,-0.11677 2.86975,-0.23665 3.91381,-0.35342 0.58036,4e-5 1.64516,-0.075 3.1528,-0.19003 1.50756,-0.115 2.5487,-0.16295 3.12559,-0.16295 l 0,-19.48752 c -0.57689,5e-5 -1.44846,-0.0222 -2.60921,-0.0817 -1.1608,-0.0582 -2.41834,-0.13187 -3.75069,-0.19003 -1.33249,-0.0582 -2.56286,-0.10479 -3.72357,-0.16295 -1.16083,-0.0582 -1.98259,-0.0813 -2.44617,-0.0813 -0.22999,4e-5 -0.71391,-0.075 -1.46764,-0.19048 -0.75382,-0.115 -1.57558,-0.2846 -2.44613,-0.51642 -0.87064,-0.23176 -1.71553,-0.54421 -2.52769,-0.95127 -0.81221,-0.4067 -1.27291,-0.89075 -1.38613,-1.46768 l 0,-1.41334 c -4e-5,-0.57676 -0.0222,-1.25333 -0.0817,-2.06562 -0.0582,-0.81208 -0.0817,-1.51231 -0.0812,-2.0928 l 0,-1.38612 c -5e-5,-0.23355 -0.0502,-1.05521 -0.10878,-2.44613 -0.0582,-1.39074 0.0178,-2.88729 0.19003,-4.51175 0.1736,-1.62429 0.48587,-3.12487 0.95127,-4.45741 0.46535,-1.33231 1.2154,-1.98397 2.25587,-1.98405 l 20.35727,0 0,-21.90648 z m 296.57983,0 c -6.72407,0.46372 -13.58591,0.87233 -20.60186,1.27743 -7.016,0.40538 -13.70828,0.50195 -20.08545,0.27173 l -3.12563,1.57642 c 0,1.97132 0.0222,4.91815 0.0817,8.86042 0.0582,3.9425 0.0813,8.53284 0.0813,13.75268 l 0,15.81835 0,15.81829 c 0,5.10325 -0.0222,9.64728 -0.0813,13.5896 -0.0582,3.9425 -0.0817,6.88928 -0.0817,8.86046 0,1.04403 -0.0733,2.90341 -0.19003,5.57176 -0.11677,2.6684 -0.26152,5.5191 -0.43468,8.53426 -0.1736,3.0152 -0.34277,5.84051 -0.51641,8.50708 -0.17361,2.66667 -0.31791,4.52778 -0.43468,5.57176 -0.23354,0.22999 -0.54608,0.71391 -0.95127,1.46768 -0.40537,0.75378 -0.62515,1.30758 -0.62515,1.65794 0,0.5804 -0.0222,1.4502 -0.0813,2.60921 -0.0582,1.15902 -0.12965,2.41652 -0.24465,3.75074 -0.11499,1.33417 -0.21356,2.5645 -0.27173,3.72352 -0.0582,1.15901 -0.0817,1.98254 -0.0817,2.44613 l 42.97041,0 c -5e-5,0 0.071,-0.55554 0.24464,-1.6579 0.1736,-1.10241 0.34277,-2.40621 0.51642,-3.91382 0.17316,-1.5076 0.3179,-3.05627 0.43467,-4.62048 0.11677,-1.56421 0.24021,-2.84262 0.35343,-3.8866 -5e-5,-0.23354 0.0222,-0.8626 0.0817,-1.84819 0.0582,-0.9856 0.10878,-1.75705 0.10878,-2.33744 -4e-5,-0.34677 0.0222,-0.7826 0.0812,-1.30461 0.0582,-0.52196 0.0355,-1.0775 -0.0812,-1.65794 -0.11677,-0.58035 -0.31169,-1.06245 -0.54359,-1.46764 -0.23176,-0.40537 -0.61907,-0.67142 -1.19587,-0.78823 -0.58044,4e-5 -1.52372,0.0222 -2.79946,0.0817 -1.27588,0.0582 -2.72434,0.0817 -4.34867,0.0817 -1.50765,4e-5 -2.88267,-0.0222 -4.15846,-0.0817 -1.27583,-0.0582 -2.21911,-0.0817 -2.79942,-0.0817 -0.6937,-0.11322 -1.63645,-0.35787 -2.85385,-0.70667 -1.21745,-0.34854 -1.8482,-0.63612 -1.8482,-0.86971 l 0,-31.31048 c 0,4e-5 0.55731,-0.071 1.65794,-0.24464 1.10059,-0.17361 2.40617,-0.34277 3.91382,-0.51642 1.50756,-0.17316 3.05445,-0.31791 4.62048,-0.43468 1.56595,-0.11677 2.86975,-0.23665 3.91382,-0.35342 0.58031,4e-5 1.61794,-0.075 3.12558,-0.19003 1.50756,-0.115 2.54874,-0.16295 3.12563,-0.16295 l 0,-19.48752 c -0.57689,5e-5 -1.44846,-0.0222 -2.60921,-0.0817 -1.16084,-0.0582 -2.39116,-0.13187 -3.72356,-0.19003 -1.33245,-0.0582 -2.58999,-0.10479 -3.75074,-0.16295 -1.16079,-0.0582 -1.98255,-0.0813 -2.44613,-0.0813 -0.22999,4e-5 -0.7139,-0.075 -1.46768,-0.19048 -0.75383,-0.115 -1.57558,-0.2846 -2.44613,-0.51642 -0.8706,-0.23176 -1.68831,-0.54421 -2.50048,-0.95127 -0.81221,-0.4067 -1.30012,-0.89075 -1.41334,-1.46768 l 0,-1.41334 c 0,-0.57676 -0.0222,-1.25333 -0.0817,-2.06562 -0.0586,-0.81208 -0.0817,-1.51231 -0.0817,-2.0928 l 0,-1.38612 c 0,-0.23355 -0.0222,-1.05521 -0.0817,-2.44613 -0.0586,-1.39074 -0.009,-2.88729 0.16295,-4.51175 0.17361,-1.62429 0.48587,-3.12487 0.95127,-4.45741 0.46536,-1.33231 1.24258,-1.98397 2.28305,-1.98405 l 20.33009,0 0,-21.90648 z M 172.625,406.06984 c 0,12.75807 0.2522,25.47699 0.76102,38.15962 0.50874,12.68286 1.08918,25.36608 1.73946,38.05094 0.65028,12.68503 1.26651,25.40394 1.84819,38.15966 0.58173,12.75577 0.86975,25.51482 0.86975,38.26836 l 18.48186,0 3.91382,-3.91381 2.39178,-59.142 c 0.43334,-0.14608 1.3399,-0.28904 2.71794,-0.43512 1.37796,-0.14608 2.93627,-0.29082 4.67479,-0.43468 1.73848,-0.14385 3.51342,-0.32678 5.32716,-0.54358 1.81365,-0.21668 3.29834,-0.39738 4.4574,-0.54359 0.72541,9e-5 1.73902,9e-5 3.04407,0 1.4465,9e-5 2.67887,-0.0715 3.69639,-0.21756 l 0,67.18705 27.17923,0 c -9e-5,-11.44854 -0.65201,-22.57558 -1.95693,-33.3761 -1.30505,-10.80039 -2.19851,-21.85164 -2.63638,-33.15863 l 0,-31.31048 c -9e-5,-1.01738 -0.0466,-2.93519 -0.19003,-5.76201 -0.14386,-2.82664 -0.32679,-5.79819 -0.54359,-8.91481 -0.21667,-3.11639 -0.43335,-6.05221 -0.65228,-8.80607 -0.21889,-2.75365 -0.40227,-4.71155 -0.54359,-5.8707 0.86695,-1.45086 1.5211,-3.33515 1.95688,-5.65328 0.43557,-2.3179 0.7259,-4.67327 0.86976,-7.06661 0.14385,-2.39307 0.17937,-4.56761 0.10878,-6.52303 -0.071,-1.95511 -0.10878,-3.36832 -0.10878,-4.23993 l -22.42289,0 c -0.28771,1.3e-4 -0.51713,1.1231 -0.7338,3.37022 -0.21667,2.24736 -0.43334,5.25466 -0.65233,9.02351 -0.21889,3.76911 -0.36408,8.04448 -0.43467,12.82858 -0.071,4.78436 -0.10878,9.64017 -0.10878,14.56808 l 0,19.13418 c -2.46851,9e-5 -5.94463,-0.0737 -10.43684,-0.21756 -4.49231,-0.14386 -8.69619,-0.36008 -12.61116,-0.65233 0.14608,-2.03036 0.25308,-3.95035 0.32634,-5.76196 0.0728,-1.81143 0.10878,-2.93662 0.10878,-3.37027 l 0,-52.8364 -30.44072,0 z m 276.76616,1.38612 c -0.11322,1.4e-4 -0.25974,0.36453 -0.43468,1.06001 -0.17538,0.69553 -0.34321,1.53815 -0.51642,2.58204 -0.1736,1.04411 -0.31968,2.10891 -0.43467,3.15275 -0.115,1.04411 -0.19048,1.91568 -0.19004,2.60921 -4e-5,0.46372 -0.0222,1.21199 -0.0817,2.25588 -0.0582,1.04411 -0.10479,2.10487 -0.16295,3.20714 -0.0582,1.1025 -0.13187,2.19048 -0.19003,3.23437 -0.0582,1.04406 -0.0817,1.79238 -0.0813,2.25587 l 17.74801,0 0,59.49533 c -0.5804,1.97123 -1.01441,3.94987 -1.30461,5.97944 -0.29037,2.02961 -0.43467,4.22866 -0.43467,6.5502 l 0,12.50246 0,3.1528 c 0,1.50756 0.0222,3.05219 0.0817,4.67479 0.0582,1.62264 0.0813,3.19444 0.0813,4.702 l 0,3.12563 c 0.34676,0.11677 1.04881,0.26151 2.09279,0.43467 1.04402,0.17361 2.15686,0.34322 3.31588,0.51642 1.15897,0.17361 2.24469,0.31791 3.28871,0.43512 1.04393,0.11677 1.81942,0.19003 2.28305,0.19003 0.34676,0 0.95038,-0.0733 1.82097,-0.19003 0.87055,-0.11677 1.80984,-0.26151 2.85386,-0.43512 1.04393,-0.17316 2.01212,-0.34277 2.88098,-0.51642 0.86877,-0.17316 1.47417,-0.3179 1.82102,-0.43467 0.11677,-0.46358 0.25974,-1.35655 0.43468,-2.69073 0.17538,-1.33422 0.34277,-2.75955 0.51641,-4.26715 0.17361,-1.5076 0.31968,-2.93471 0.43468,-4.26715 0.115,-1.3324 0.19003,-2.27341 0.19003,-2.85381 -4e-5,-1.97118 0.0222,-5.30571 0.0817,-10.00194 0.0582,-4.69619 0.0813,-9.72054 0.0813,-15.05733 0,-5.33315 -0.0222,-10.33388 -0.0813,-15.03011 -0.0582,-4.69615 -0.0817,-8.03067 -0.0817,-10.00195 l 1.54925,-3.12562 c 0,-0.69708 -0.0266,-1.95289 -0.0817,-3.75074 -0.0568,-1.79771 -0.0817,-3.682 -0.0817,-5.65327 0,-1.97114 0.0266,-3.85716 0.0817,-5.65328 0.0564,-1.79593 0.0817,-3.05347 0.0817,-3.75073 -4e-5,-1.04389 0.0733,-2.39578 0.19048,-4.0769 0.11677,-1.68089 0.26151,-3.299 0.43467,-4.86508 0.17316,-1.5659 0.34277,-2.94496 0.51642,-4.10407 0.17316,-1.15889 0.3179,-1.73937 0.43468,-1.73946 l 10.95325,0 0,-19.6506 -50.09137,0 z m 60.03892,0 -3.12559,1.57643 c -4e-5,1.97131 0.0222,4.91814 0.0813,8.86042 0.0582,3.94249 0.10878,8.53283 0.10878,13.75267 l 0,15.81835 0,15.8183 c 0,5.10324 -0.0502,9.64727 -0.10878,13.58959 -0.0582,3.9425 -0.0817,6.88928 -0.0813,8.86047 -4e-5,1.04402 -0.0462,2.9034 -0.16294,5.57175 -0.11678,2.6684 -0.26152,5.5191 -0.43468,8.53426 -0.1736,3.0152 -0.34321,5.84051 -0.51642,8.50708 -0.1736,2.66667 -0.3179,4.52778 -0.43467,5.57176 -0.23355,0.22999 -0.57329,0.71391 -0.97849,1.46769 -0.40537,0.75377 -0.59793,1.30757 -0.59793,1.65794 0,0.58039 -0.0222,1.45019 -0.0817,2.60921 -0.0582,1.15901 -0.15673,2.41651 -0.27173,3.75073 -0.11499,1.33418 -0.18603,2.5645 -0.24464,3.72352 -0.0582,1.15901 -0.10878,1.98255 -0.10878,2.44613 l 45.57957,-0.70663 c -4e-5,0 0.0981,-0.50523 0.27173,-1.54925 0.17316,-1.04398 0.34099,-2.32465 0.51637,-3.83225 0.17494,-1.5076 0.31968,-3.07936 0.43468,-4.70201 0.11499,-1.62259 0.23665,-2.95135 0.35342,-3.99533 0,-0.23354 0.0222,-0.83539 0.0817,-1.82102 0.0582,-0.98559 0.0817,-1.78417 0.0817,-2.36461 -8e-5,-0.34677 0.0222,-0.7826 0.0813,-1.30461 0.0582,-0.52196 0.0582,-1.0775 0,-1.65794 -0.0582,-0.58035 -0.22644,-1.06245 -0.51642,-1.46764 -0.29038,-0.40537 -0.72425,-0.67142 -1.30461,-0.78823 -0.58044,4e-5 -1.93228,0.14474 -4.07685,0.43467 -2.14465,0.29038 -4.02894,0.43468 -5.65332,0.43468 -1.5076,4e-5 -2.90979,-0.0222 -4.18558,-0.0813 -1.27584,-0.0582 -2.1919,-0.0817 -2.7723,-0.0817 -0.69366,-0.11322 -1.66362,-0.35786 -2.88098,-0.70667 -1.21745,-0.34854 -1.82102,-0.63612 -1.82102,-0.86971 l 0,-56.34257 0,-1.41334 c 0,-0.57676 -0.0222,-1.25333 -0.0812,-2.06563 -0.0586,-0.81207 -0.0817,-1.5123 -0.0817,-2.09279 l 0,-1.38612 c -4e-5,-0.11678 0.16961,-1.00966 0.51642,-2.69073 0.34676,-1.68094 0.70733,-3.78515 1.11435,-6.27843 0.40715,-2.4931 0.8178,-5.12567 1.22304,-7.90915 0.40537,-2.7833 0.69633,-5.39269 0.86975,-7.82763 0.17361,-2.43467 0.17361,-4.46362 0,-6.08813 -0.1736,-1.62428 -0.61099,-2.44604 -1.3046,-2.44613 l -19.48752,-0.5165 z m -147.12118,0.70667 -24.3526,0.32634 c -0.11677,9e-5 -0.36008,0.62911 -0.70667,1.8482 -0.34676,1.21927 -0.6362,2.16028 -0.8697,2.85381 -0.11678,0.35031 -0.26152,0.90598 -0.43468,1.65794 -0.1736,0.75214 -0.34321,1.52532 -0.51642,2.33739 -0.1736,0.8123 -0.3179,1.61088 -0.43467,2.36461 -0.11677,0.75387 -0.16295,1.23419 -0.16295,1.46769 l -6.27838,11.82296 c -0.34677,1.62447 -0.61485,3.2194 -0.78819,4.78353 -0.1736,1.5643 -0.34321,2.99145 -0.51642,4.26715 -0.1736,1.27588 -0.29481,2.3135 -0.35342,3.12558 -0.0586,0.8123 -0.0817,1.29661 -0.0817,1.41334 -1.39083,6.03045 -2.62115,11.31876 -3.72351,15.89986 -1.10241,4.58124 -2.19039,8.76248 -3.23437,12.52964 -1.04397,3.76725 -2.0816,7.368 -3.12558,10.79013 -1.04402,3.42222 -2.08165,7.0461 -3.12563,10.8717 -1.04402,3.82568 -2.17999,8.05318 -3.39739,12.69271 -1.21741,4.63958 -2.5693,10.10149 -4.0769,16.36189 l 26.41822,3.99533 1.57633,-13.39934 c 0,-0.46358 0.12166,-1.21185 0.35343,-2.25587 0.23177,-1.04398 0.5229,-2.37096 0.86975,-3.99534 1.62433,-0.22999 3.5318,-0.47486 5.73484,-0.70667 2.20295,-0.23177 4.06406,-0.47308 5.57171,-0.70667 0.46358,0 1.67077,0 3.64204,0 1.97469,0 3.78776,-0.0462 5.40863,-0.16295 0.23354,2.43486 0.44764,4.87468 0.6795,7.31122 0.23177,2.43658 0.52285,4.63336 0.86975,6.60459 0.34676,1.97118 0.75764,3.56612 1.22304,4.78352 0.46531,1.2174 1.0458,1.82102 1.73951,1.82102 l 5.05529,0 c 2.55158,0 5.01454,-0.14474 7.39278,-0.43512 2.37811,-0.28993 5.42332,-0.89377 9.13223,-1.82098 -8e-5,-2.55162 -0.22022,-5.28253 -0.62515,-8.18096 -0.40537,-2.89839 -0.88733,-5.84522 -1.46764,-8.86042 -0.58049,-3.01516 -1.16093,-5.98743 -1.7395,-8.88764 -0.57867,-2.90012 -1.11284,-5.55581 -1.57638,-7.99067 -1.74124,-9.39237 -3.45592,-18.62282 -5.1369,-27.66848 -1.68108,-9.04552 -3.27601,-18.32223 -4.78353,-27.83151 -0.92729,-5.10312 -1.79709,-9.81267 -2.60921,-14.16041 -0.81225,-4.34751 -1.3157,-9.30011 -1.5492,-14.86703 z m 28.02178,2.41896 -1.57638,1.57638 c -0.11677,0.11322 -0.26152,1.42075 -0.43468,3.91381 -0.1736,2.49333 -0.34143,5.72947 -0.51641,9.73017 -0.17538,4.00089 -0.39339,8.49461 -0.62516,13.48091 -0.23176,4.98648 -0.42446,10.0126 -0.59793,15.05728 -0.1736,5.04486 -0.34321,9.89912 -0.51642,14.59526 -0.1736,4.69628 -0.3179,8.72926 -0.43467,12.09478 0,1.50765 -0.0222,4.04582 -0.0817,7.58299 -0.0582,3.53726 -0.15673,7.37701 -0.27173,11.55119 -0.11499,4.17422 -0.18603,8.4289 -0.24464,12.71989 -0.0582,4.29099 -0.10878,7.98787 -0.10878,11.11629 l 0,5.57172 21.06389,0 0,-54.79333 7.82763,0 c 0.23355,1.04406 0.54603,2.66213 0.95127,4.86508 0.40537,2.20304 0.86411,4.69095 1.38617,7.4743 0.52197,2.78344 1.05437,5.73253 1.57638,8.80607 0.52196,3.07364 1.02719,5.99551 1.5492,8.7789 0.52197,2.78344 0.98089,5.27131 1.38617,7.4743 0.40537,2.20299 0.74481,3.82106 0.97844,4.86509 0.23,1.27401 0.5923,2.91703 1.11435,4.9466 0.52193,2.02961 0.95598,3.74607 1.30461,5.13686 0.34854,1.39083 0.58985,2.21258 0.70663,2.44613 l 19.29726,0 c -5e-5,-4.52277 -0.60367,-8.99331 -1.82098,-13.39935 -1.21745,-4.40599 -2.5213,-8.77814 -3.91382,-13.12757 -1.39265,-4.34938 -2.69645,-8.67349 -3.91381,-12.96449 -1.21745,-4.29094 -1.82107,-8.63997 -1.82102,-13.04605 -5e-5,-0.34676 0.48205,-0.90407 1.46768,-1.65789 0.98555,-0.75378 2.07348,-1.64671 3.23432,-2.69078 1.16075,-1.04393 2.22151,-2.2743 3.20715,-3.72356 0.98554,-1.44912 1.49481,-3.06946 1.49486,-4.81069 -5e-5,-7.65119 -0.36453,-15.09347 -1.05997,-22.34133 -0.69548,-7.24772 -1.39567,-14.51689 -2.09279,-21.82495 -0.11677,-0.69353 -0.21134,-1.5651 -0.32634,-2.60921 -0.115,-1.04389 -0.25974,-2.05834 -0.43468,-3.04406 -0.17538,-0.98551 -0.37029,-1.8553 -0.54359,-2.60922 -0.1736,-0.75369 -0.24464,-1.14143 -0.24464,-1.14152 l -46.9657,0 z m 17.20446,17.23164 10.95322,0 c 1.04397,9e-5 1.81942,0.77327 2.28304,2.33739 0.46358,1.56435 0.77785,3.32707 0.95127,5.29999 0.17361,1.97304 0.21978,3.83243 0.16295,5.57171 -0.0564,1.7395 -0.0817,2.80608 -0.0813,3.1528 -4e-5,0.69726 -0.0222,1.75802 -0.0817,3.20714 -0.0582,1.44931 -0.0817,2.22427 -0.0813,2.33744 l -3.1528,3.12558 -10.95321,0 0,-25.03205 z m -61.23483,30.25047 c 0.81039,9e-5 1.68196,0.63084 2.60921,1.8482 0.92716,1.21749 1.55218,2.27648 1.90254,3.20714 0.11677,0.57694 0.31169,1.83621 0.54359,3.75074 0.23176,1.91466 0.47255,4.11144 0.76106,6.60454 0.28815,2.49328 0.57946,5.10267 0.8697,7.82763 0.28994,2.72505 0.55456,5.18801 0.78819,7.39278 -1.27761,0 -2.77238,-0.0462 -4.51175,-0.16295 -1.73946,-0.11677 -3.45592,-0.21356 -5.13686,-0.27172 -1.68107,-0.0582 -3.13131,-0.15674 -4.34866,-0.27173 -1.21745,-0.115 -1.99063,-0.16295 -2.33744,-0.16295 l -0.54359,0 c 0.69712,-3.59556 1.51888,-7.1714 2.44613,-10.70861 0.9272,-3.53713 1.84504,-6.72527 2.77229,-9.56709 0.92716,-2.84174 1.77382,-5.13691 2.52769,-6.87637 0.75374,-1.73932 1.30749,-2.60912 1.6579,-2.60921 z"
       inkscape:connector-curvature="0" />
    <g
       transform="matrix(0.85523935,0,0,0.85523935,23.735135,137.82916)"
       style="font-style:normal;font-variant:normal;font-weight:normal;font-stretch:normal;font-size:78px;line-height:125%;font-family:Xoireqe;-inkscape-font-specification:Xoireqe;text-align:start;letter-spacing:0px;word-spacing:0px;writing-mode:lr-tb;text-anchor:start;fill:url(#linearGradient3888);fill-opacity:1;stroke:none"
       id="flowRoot3058">
      <g
         id="g3086"
         style="fill:url(#linearGradient4636);fill-opacity:1">
        <g
           id="g3874"
           style="fill:url(#linearGradient4634);fill-opacity:1">
          <path
             d="m 364.78711,472.39456 0,14.58453 -67.7049,0 0,28.31451 52.65143,0 0,-6.55078 -25.89605,0 0,-15.05347 40.71386,0 0,18.56214 c -8e-5,2.34071 -0.36388,4.38188 -1.0914,6.1235 -0.72768,1.74165 -1.94921,3.60032 -3.66458,5.57602 -2.13289,2.49622 -4.68147,4.21247 -7.64575,5.14875 -2.44392,0.78076 -5.64155,1.17114 -9.5929,1.17114 l -38.76672,0 c -3.4833,0 -6.34291,-0.3642 -8.57886,-1.09259 -2.65174,-0.88391 -5.04401,-2.41766 -7.17682,-4.60126 -1.87256,-1.92492 -3.26349,-3.88833 -4.17279,-5.89023 -0.9093,-2.00188 -1.36395,-4.3025 -1.36395,-6.90188 l 0,-23.24433 c 0,-1.76778 0.58478,-3.7177 1.75433,-5.84976 1.16955,-2.13197 2.74218,-4.0561 4.7179,-5.7724 1.9757,-1.71619 4.22475,-2.89924 6.74716,-3.54913 2.52238,-0.64979 5.13563,-0.97471 7.83975,-0.97476 z"
             style="fill:url(#linearGradient4622);fill-opacity:1"
             id="path3067"
             inkscape:connector-curvature="0" />
          <path
             d="m 451.72064,486.82436 c 0,-3.74348 1.16995,-6.96729 3.50986,-9.67144 2.33989,-2.70405 5.35542,-4.23859 9.0466,-4.60364 4.1085,6e-5 7.64493,1.17041 10.60931,3.51105 2.65171,2.08049 4.75754,5.04405 6.31751,8.89068 l 13.02539,32.37067 14.27508,-34.08453 c 1.40436,-3.38008 3.22455,-5.98024 5.46058,-7.80048 2.44377,-1.97565 5.35576,-2.9635 8.73596,-2.96356 4.31474,6e-5 7.82419,1.63775 10.52838,4.91308 2.54849,3.06756 3.82279,6.81188 3.82288,11.23297 l 0,41.88501 -13.96326,0 0,-42.66577 -13.80615,30.41876 c -2.44391,5.35743 -4.61481,8.88078 -6.5127,10.57004 -1.898,1.68927 -4.14666,2.69022 -6.74597,3.00284 -4.00383,0 -7.4879,-1.37823 -10.45221,-4.1347 -2.28837,-2.13122 -4.3942,-5.30267 -6.31751,-9.51435 l -13.57287,-29.79748 0,42.51105 -13.96088,-0.39039 z"
             style="fill:url(#linearGradient4624);fill-opacity:1"
             id="path3071"
             inkscape:connector-curvature="0" />
          <path
             d="m 544.63605,530.97311 0,-58.57855 16.14605,0 0,58.57855 z"
             style="fill:url(#linearGradient4626);fill-opacity:1"
             id="path3073"
             inkscape:connector-curvature="0" />
          <path
             d="m 582.45062,471.22341 c 2.08043,6e-5 4.13468,0.49438 6.16278,1.48297 2.02805,0.98871 3.97837,2.39233 5.85096,4.21088 l 39.23327,39 0,-43.28943 14.66309,0 0,42.4325 c -9e-5,3.4325 -0.59796,6.33179 -1.79361,8.69787 -1.19582,2.3661 -3.17193,4.32911 -5.92832,5.88904 -0.98713,0.51892 -2.07893,0.9343 -3.27539,1.24612 -1.1966,0.31183 -2.31458,0.46775 -3.35394,0.46775 -2.18366,0 -4.2764,-0.48084 -6.27823,-1.44251 -2.00195,-0.96167 -3.96536,-2.37878 -5.89023,-4.25134 l -39.23327,-38.68817 0,43.75836 -14.58692,-0.23328 0,-45.3175 c 0,-2.91194 0.728,-5.40815 2.18399,-7.48865 1.45599,-2.08039 3.5884,-3.77045 6.39725,-5.07019 1.97569,-0.93622 3.92522,-1.40436 5.84857,-1.40442 z"
             style="fill:url(#linearGradient4628);fill-opacity:1"
             id="path3075"
             inkscape:connector-curvature="0" />
          <path
             d="m 736.35352,472.39456 0,14.58453 -67.7049,0 0,28.31451 52.65143,0 0,-6.55078 -25.89606,0 0,-15.05347 40.71387,0 0,18.56214 c -9e-5,2.34071 -0.36389,4.38188 -1.0914,6.1235 -0.72768,1.74165 -1.94921,3.60032 -3.66458,5.57602 -2.13289,2.49622 -4.68147,4.21247 -7.64575,5.14875 -2.44392,0.78076 -5.64155,1.17114 -9.5929,1.17114 l -38.76672,0 c -3.4833,0 -6.34292,-0.3642 -8.57886,-1.09259 -2.65175,-0.88391 -5.04402,-2.41766 -7.17682,-4.60126 -1.87256,-1.92492 -3.26349,-3.88833 -4.17279,-5.89023 -0.9093,-2.00188 -1.36396,-4.3025 -1.36395,-6.90188 l 0,-23.24433 c -10e-6,-1.76778 0.58477,-3.7177 1.75433,-5.84976 1.16955,-2.13197 2.74218,-4.0561 4.7179,-5.7724 1.97569,-1.71619 4.22474,-2.89924 6.74716,-3.54913 2.52238,-0.64979 5.13563,-0.97471 7.83975,-0.97476 z"
             style="fill:url(#linearGradient4630);fill-opacity:1"
             id="path3077"
             inkscape:connector-curvature="0" />
          <path
             inkscape:connector-curvature="0"
             d="m 388.77603,467.91013 0,11.07172 9.11788,0 3.74483,11.56015 -27.84208,43.14709 13.67681,0 19.86395,-29.30745 13.02555,32.88948 20.51521,-6.51279 -3.25639,-10.09477 -9.44351,2.93075 -22.14342,-55.68418 -17.25883,0 z"
             style="fill:url(#linearGradient4632);fill-opacity:1;fill-rule:evenodd;stroke:none"
             id="path2255" />
        </g>
      </g>
    </g>
  </g>
</svg>
